/* XPM */
static char *art[] = {
/* columns rows colors chars-per-pixel */
"64 64 100 2",
"   c #252525",
".  c #262827",
"X  c #282627",
"o  c #2B2B2B",
"O  c #2F302D",
"+  c #302E2F",
"@  c #312F30",
"#  c #323232",
"$  c #373939",
"%  c #383636",
"&  c #383738",
"*  c #393937",
"=  c #3A3A3A",
"-  c #403E3E",
";  c #403F40",
":  c #444343",
">  c #484646",
",  c #484748",
"<  c #494847",
"1  c #4C4A4B",
"2  c #504E4E",
"3  c #514F50",
"4  c #52504E",
"5  c #545253",
"6  c #585556",
"7  c #595758",
"8  c #5A5856",
"9  c #5C5A5A",
"0  c #605D5D",
"q  c #615F60",
"w  c #646262",
"e  c #686565",
"r  c #696768",
"t  c #6B6867",
"y  c #6D6A6A",
"u  c #716D6D",
"i  c #716E70",
"p  c #72706E",
"a  c #757272",
"s  c #797574",
"d  c #797778",
"f  c #7B7876",
"g  c #7D7A7A",
"h  c #817D7C",
"j  c #817F80",
"k  c #83807E",
"l  c #858281",
"z  c #898584",
"x  c #8A8788",
"c  c #8B8886",
"v  c #8D8A89",
"b  c #918D8C",
"n  c #928F90",
"m  c #93908E",
"M  c #959291",
"N  c #9A9594",
"B  c #9A9798",
"V  c #9B9897",
"C  c #9D9A9A",
"Z  c #A19C9C",
"A  c #A4A09F",
"S  c #A5A1A1",
"D  c #A9A5A4",
"F  c #ABA7A8",
"G  c #ABA8A7",
"H  c #ADAAAA",
"J  c #B1ACAC",
"K  c #B2AFB0",
"L  c #B3B0AE",
"P  c #B5B2B1",
"I  c #BAB4B4",
"U  c #BBB8B6",
"Y  c #BCBABA",
"T  c #C1BCBC",
"R  c #C3BEC0",
"E  c #C4C0BE",
"W  c #C4C3C2",
"Q  c #C9C5C5",
"!  c #C8C7C8",
"~  c #C9C8C6",
"^  c #CBCBCA",
"/  c #CED0CF",
"(  c #D0CCCC",
")  c #D0CFD0",
"_  c #D1D0CE",
"`  c #D3D3D2",
"'  c #D8D7D7",
"]  c #DAD7D8",
"[  c #D8D8D7",
"{  c #DBDBDA",
"}  c #E2DFDE",
"|  c #E0DFE0",
" . c #E0E0DE",
".. c #E3E3E3",
"X. c #E9E7E8",
"o. c #ECECEB",
"O. c #F0EFED",
"+. c #F0EFF0",
"@. c #F0F0EE",
"#. c #F2F2F2",
/* pixels */
"o o o o # o   o o # o   o o # o . @ # # o o @ O # o O # @ # O O o o # # # o = 5 3 g y p z h # . o # @ o . X # o o . o # o o X o ",
"o       o     . o # .   o o # X X o @ O .   o o O # : w f q = O o o * < w u f c y d 3 1 9 d : o   o o o   . @ o X   . o . . . o ",
"o   o o O o   o o @     o o # . . o * < - - 5 5 : = 1 g V z 6 % : 1 q t g g g x y r 3 1 5 y : o   # o o   . @ o o   o @ o o X o ",
"o   o o # o   o o # . . @ o # o . # 5 k u s D H y 1 1 l Z J z 6 g M L A g 1 1 5 3 2 q w 6 3 $ . o # O o . . # o o . o @ o X o o ",
"o o o # & o o # # % o o # & $ o % 8 b T G S Y o.F 9 $ n v M N Y ..T K x 9 3 5 9 9 # : 9 n 7 K w < = # # o @ $ # # o @ & @ @ o # ",
"o o o o # o   o o #     o o # ; - 1 O s 5 4 A ^ M 9 1 g 5 5 5 d s b C s 3 , : 6 5 o . # 7 S R v l 3 @ o   . @ @ o   . @ o . . o ",
"        o       o o     o = y w 6 : o 6 : : w v v a y i 1 1 , 6 h t r 3 $ # # $ $ o + # 1 7 q q y d o .     o .       o       . ",
"o o o o # o   o o # . o # w H v u 1 O 1 : : 1 y B v v a 3 3 1 6 n w 5 1 $ # # $ # @ = : 1 @ # 3 y Z $ @   . # o o   o # o o o o ",
"o o o o # o o o O & o o : H x u q 3 # # ; : @ # 3 1 < # # < 1 5 5 1 7 5 6 < 1 5 # # o o $ # 1 : , 7 5 # . o # # o . o # o o o o ",
"& o # # $ @ o # # $ 1 y K U 9 2 1 7 9 ; # @ & $ = # # $ $ 3 1 & & # = = 9 5 5 7 $ $ > : = 9 7 1 1 q 7 & o o $ # # o @ & # @ # # ",
"o     o o     o < S Z M b u g , = , o o $ : , < # o o o o o o o o . @ o o . . O O o = ; 3 < < = ; 3 a #     o o o     o X .   . ",
"    . . o   # < w v M z b h x 1 = $ o o $ = , > ; o . o o O o * > > > # o   . O o . # $ 1 < = # # ; u =     o . .     o . .   . ",
"o o o # = = 7 l A z b c Z Z G 6 ; $ = $ = : 5 3 5 ; # $ # = : q k k h 8 : % # = $ # o # 5 1 # o o $ d 5 # o # @ @ . o # o o o @ ",
"# o & 5 v Z M D J b u u f 6 9 1 5 l x : O # 6 6 9 3 3 7 8 g m P J H T L I k r 0 7 # o o = % # = 1 9 5 5 & o # # @ . @ # @ o o # ",
"# # > l M 5 w M } Q 2 2 8 9 0 2 1 7 9 q = # $ $ = # $ 9 H ^ H M v t q w M G E o.W 9 $ @ $ * 5 1 3 9 7 7 = @ $ # # o # & # # @ # ",
"o . # 1 6 + 1 u q l - - , 1 2 : ; 1 1 3 ; $ O : 1 ; : a M G V B M f r 1 5 5 8 a S b 1 % # o # % : 3 1 , # . @ o .   o o o .   o ",
"o   o : ; @ ; 7 > r - - ; 1 2 - = ; ; 1 ; = # 1 1 : : r l v g g g r q 1 1 : : 7 l v 9 1 $ o o # = 1 ; = o . o o .   . o .     . ",
"o o $ 1 # 2 : 2 3 7 1 ; 3 6 7 , , 3 % 3 1 , 7 7 7 3 5 7 d i 5 6 5 5 7 5 7 1 2 9 5 l m x 9 $ # = , 9 # # . o # @ + . @ # @ o o @ ",
"# o & 5 % 2 > 3 6 9 1 1 3 7 9 % % 3 $ $ # = x b y 5 5 9 7 9 6 8 7 5 9 7 7 2 3 9 7 c K Y T v = o # 9 7 5 $ o $ # @ o @ # # o o # ",
"# : 1 5 7 3 1 5 7 9 1 1 7 9 q 1 ; = 7 ; ; 9 Y | | Y S 9 9 g M K K a 5 ; 9 3 5 q 9 b Z J ^ ..H 1 o ; 9 7 , 1 $ $ # o # $ # @ @ # ",
"+ ; ; > 3 : ; > 1 3 ; ; , = = : & @ 1 w i j Y ! ^ P H S C H C x j i w : 3 : , 3 2 M C N m d C 3 $ # 1 w w s # o o   o # . o . o ",
"o ; 3 2 2 ; = > , 2 ; ; : o $ = & # 6 j x B ! ! / P Y / ~ ( H h d i y 1 2 : : 6 5 D S V l 1 z 6 : @ 7 d d n o o .   . o o .   o ",
"@ j n g 9 @ = 2 5 9 1 , 1 $ 9 1 , 7 x Y Y ! | X.o./ ` o. .o.( I x l j 9 7 3 3 w x | W U Y 7 5 w i $ K ) K W % o @ . @ # @ @ o @ ",
"D q 3 6 v @ o @ $ 9 < , 5 7 9 2 , 9 I R Y ! X.o.+.` [ o...+.{ ..{ [ [ H 7 d n ! X...W ! ..9 6 > 1 9 K J l g $ @ @ o @ # # o o # ",
"b 0 , = y , $ # $ ; $ = 7 9 0 3 7 l R ( J J R ( ( T T ( X.O.} O.X.| +.{ / W W X.#.X.! ^ +.H 9 1 2 0 V u 7 7 = & # o # $ # o @ # ",
"B i q 3 5 = o o o # . + ; 3 5 , 3 h H L N N J J T N Z D R ` Q ` ^ W { / ` Y P ^ [ ^ B M K H e 1 > 5 h w : $ # o o . o @ o o . @ ",
"Y n l i 3 o . o + # o o @ 3 9 , 5 h J L N N D A T Z Z J Q } ( ( / ! { ` ` Y H Y ^ ! d y j S j 1 > 6 g a - o # o o . o # o o o o ",
"3 2 3 3 $ @ o # # = 1 = % 9 n g h T T R D Z T T T J J T T } } O...{ #.X.Y j B K 9 7 1 1 q 9 l 7 1 9 v - o + $ # # o # $ # o # # ",
"d 3 2 1 % + . @ # % # $ 2 6 b n M J P T Z Z T T T A Z T J T T X.{ [ o.| | S d > $ $ : 7 l 7 9 , 1 9 l = o o & # @ o # # # o o # ",
"r 6 3 5 2 @ $ : # $ + = 7 9 N v b Z } Q J D T T T T T T T T T X.X.| #.o.+.! M y 2 1 1 7 d q 7 1 2 q 9 = o # $ # # . # $ # @ # # ",
": ; 2 3 w % = , @ # o @ > 3 C h h b _ T Z Z J D T Z D T T T T ] ` ! [ / { ! H C i q 2 ; 3 q q , , 3 # @ . o # o o . o # o o . # ",
"@ ; 3 3 v 3 > 1 # $ o + $ 7 R Z N J T T Z Z T T T D D T J T T ] { Y W Y X.^ ^  .U x 5 : = v l 5 , & # # . o & # # o # # # o o # ",
"@ o % 5 c a 5 1 # 7 y y g h T V b D J T Z Z J J T A N T D T J J H H V 0 c g h z 8 l 4 1 q L k 5 : % # O . o & # o o o & o o o # ",
"O o # 1 c v t y w K Z b N Z I N b Z T T N N J J T Z Z T J T D G G U Y b A h s z a w 1 1 g ^ C 2 $ # # O   o # o o . o # o o o O ",
"# % 1 f M C h l v ) N n V T { J A T T T J D T T T T J T T ( T T Y _ o.` ` c g k k u 4 0 Z o./ w = = $ # o # & & & o # = # # @ # ",
"O : w A c p r d g v 1 , 0 I @.A b T T T Z Z J b J Z Z T T T J L U ^ o.....v p e 0 z 8 0 V ..[ p 1 # $ # o o # # # . o $ # o o # ",
"# : 9 g 9 # = 3 7 9 1 1 q Y O.J N T T b h h j c b h h T I R I T  .{ @...o.` T Y b b a k ~ o. .b p $ # # o O $ # # o # & # @ o # ",
"> : < 1 3 o . # + # o # 5 S P b h h h h u t h h h h h h h Z Z D S U [ / ` Y Y / ~ A p u b _ A k g # # o   . # o .   . o . . . o ",
"= ; , 1 3 $ . o o # $ $ 5 N J l h h h h u t t t h h h w f m b M n V L G H V B H H A h h z Y A h d # o o . o @ o o   o @ o o o o ",
"# : 5 5 q 5 = $ $ $ 3 1 9 b E h h j j m h u 0 0 h h h w h M v m v c M b M l l B m L A A A E U k p $ % # o # $ # # o # & # o # # ",
"# : 1 5 7 5 > < # % 1 , 9 v N 6 - 6 8 0 2 ; 6 0 x k k v 0 g z v v z M v m h k m m b N D E T I h u $ & # . # # # # o # & o # o # ",
"# o & 2 7 1 , 3 3 6 , > 8 l 9 1 ; 6 h h h h j j b h h b x b k c z l b z k h h b k k s b  .I k 8 , # # o o o # # o o o & o O o # ",
". . @ : 1 : = : > 2 - > e p 1 8 0 e h h t e h 6 a y y f a h u f p p g a s t t h s s 0 p G h a * o # o o     # o o     o X .   . ",
"# = 1 9 3 : = , > 2 2 6 h k 0 9 0 h h h t e t 4 y y p g f h p f a a k f h u u k k k e s Z g t *   # o o     o o o   . # o . . o ",
"7 b F F 9 5 1 5 7 q h z T R N 0 0 j b N h h 6 8 q y z M m C c m b c V m M k k A E E k k m m 8 * o = & # o @ $ # # o # $ # # @ # ",
"j n x 3 # 3 , 3 6 n Z S ] | R 0 1 6 9 0 2 2 6 6 9 5 5 m c M k v c k m c b k h V T I h h m b 8 # o $ # # o o & # @ o o # @ o o # ",
"3 1 2 2 j @ o % 6 x N Z ( ] | Z h 2 6 j h h F j w 1 4 9 g v k k k k v k c f c L k k s s k 8 * . o $ # O   o # # o o o & o o o @ ",
"; 2 9 i b 3 @ o ; i j l H I T Z j v N D j j Z j l e 8 1 4 8 4 5 t t s u p e y k s u 0 w s < o     o .       o       . o .     . ",
"2 9 u c N w = # 1 g x n P R ! S C Y ! ! F S S S H x i 7 8 8 < 4 u y f a g t y g f a w e f > o   . # o o     o o o   . @ .     o ",
"l h u 6 9 5 1 5 7 M W R | o.#.^ ! ..o.#./ / o.#.#.` [ ! Y H h 9 6 8 a m m k z N m b g h M = # o @ = # # o # = # # o # = # # @ # ",
"3 , 1 2 7 1 : 1 & v U U [ | o.W Y [ ....W W | ....! / ..{ / A l 5 u b z v f d b b l a y 7 # @ o o & # # o o & # o o o # o o o # ",
"1 > > 1 5 y w i p H K L ! / { P K / { { Y Y ` [ { Y S Y L U A D f f z k k s d x k h y 0 = # o   . # # o   . # o o . o # o o o o ",
"; - = ; q w 3 3 8 V v l C P W B B P Y Y B n S S F n x j m m f k u y u 8 9 3 3 w p u 1 : o o o     o . .     o       . o         ",
"> ; : , d y 1 > 1 S l j B Y ^ S C Y W ! M x C C S n n d M v p d p u u 1 1 : : 7 d d 1 = @ o o   . # o o     # o .   o o o     o ",
"@ : 3 5 9 3 1 5 8 W A C P Y #.! W ..o./ G S Y o.#.! K W Y H c v c c h 9 7 5 5 9 9 7 # O = $ # o o $ & # o o = # # o # & # o o # ",
"@ ; , 1 6 , ; 1 5 P n n S H { Y P / { { G C [ { { P C P c c g l h 0 6 5 6 1 1 6 6 # o o # # # X o & o #   o # @ o   o # o o o # ",
"+ - ; 2 6 ; ; ; 1 H b z Z D I H H ^ ` [ P K / / T Z Z H C D m g h u y 3 5 < w C B # . X # @ o . o # # o   o # o o . o o o o . o ",
"X - ; ; ; ; - ; > V h s z b Z m M K P Y C C P H Z z z M m V k p s a p 4 > 5 p F S : .   o o .     o o .     o .       o       o ",
"X - ; ; 9 ; ; 2 1 J c c Z Z D D F W / / P K / S H N V H A H n g Z Z C a 5 v F ` / g # o # @ o .   # o o     @ o o   o # o .   o ",
"@ + - 5 0 6 ; 6 7 W Z V J T T T R | o.+.P S Y Y Z h k m c M M Y I J Q T o.` / +.+...r > $ # # o o & # # o o & # # o o & @ # o # ",
"+ X o @ 5 ; ; 2 2 J b b Z Z J m M ^ / [ A m Z h k p a h d j l F ! W ` / ` Y Y ` _ / d 7 # # o   o # # o   o # o o   o # o o X o ",
"X X X + 4 - - ; ; J j j N Z D b b R ^ ^ Z v k s h u u g d n B Y W Y ^ W ^ P P ^ ! W z r # o o     @ o o   . o o o   . @ . . . o ",
"o X X X - - - ; 4 D j h N N D j b T Q ~ Z h h a h u u h i B F ! Y Y ^ ! ! K P ^ ! W v p & o o     # o .   . o o X   o o X   . o ",
"o X o + - 2 - 2 ; T b b Z D T Z V ( [ } A b h k k s s k j Y / [ / ! { ` [ W W { [ ` C j 5 # #   o # # o   o # @ o   o # o o o o "
};
