/* XPM */
static char *ce3ed4b4a6a9435aaded6c19b66a3e9fTzmdLnLC2mpl4z7y[] = {
/* columns rows colors chars-per-pixel */
"64 64 69 1 ",
"  c #000000",
". c #0B0101",
"X c #130102",
"o c #1B0202",
"O c #230203",
"+ c #2C0203",
"@ c #2C0508",
"# c #340304",
"$ c #3B0303",
"% c #300608",
"& c #440404",
"* c #4B0405",
"= c #45070A",
"- c #4A0508",
"; c #550404",
": c #5B0404",
"> c #52070B",
", c #640505",
"< c #6B0405",
"1 c #610709",
"2 c #6F060A",
"3 c #6D0909",
"4 c #730505",
"5 c #7C0505",
"6 c #7B0805",
"7 c #760509",
"8 c #72080A",
"9 c #7E0808",
"0 c #830504",
"q c #8C0504",
"w c #820709",
"e c #8E0608",
"r c #930505",
"t c #9C0504",
"y c #970609",
"u c #9F0609",
"i c #A00503",
"p c #A20403",
"a c #A60402",
"s c #A70502",
"d c #A10304",
"f c #A10506",
"g c #A60704",
"h c #AA0501",
"j c #AA0503",
"k c #AD0400",
"l c #AA0404",
"z c #AF0505",
"x c #A30907",
"c c #A00709",
"v c #AB0708",
"b c #B70302",
"n c #B20403",
"m c #B40500",
"M c #B20604",
"N c #B60606",
"B c #BB0301",
"V c #B90302",
"C c #B80403",
"Z c #BD0400",
"A c #BD0304",
"S c #BF0206",
"D c #B90504",
"F c #B80405",
"G c #B10805",
"H c #B70805",
"J c #C30300",
"K c #C20503",
"L c #C10504",
/* pixels */
"                                                                ",
"                                                                ",
"                                                                ",
"                                                                ",
"                                                                ",
"                                                                ",
"                                                                ",
"                                                                ",
"                                                                ",
"                                                                ",
"                                                                ",
"                                                                ",
"                                                                ",
"                                                                ",
"                                                                ",
"                                                                ",
"                                                                ",
"                                                                ",
"                                                                ",
"                                                                ",
"                                                                ",
"                                                                ",
"                                                                ",
"            .oOX                  XO            X*0&            ",
"          #7riht-                -f7           .rZJM#           ",
"       X-tKKmrrmdX             .,DV#           ,CKZt.           ",
"    .##5LZr5;#=9n+             ;KJ0            .<KKr.  +;O      ",
"  X,GKKSq&X.  %yhO        O-$oXiKDX         O$$X*KJ0  -ZJhX     ",
" ,DKKh4#Xw* O3wD<X$$;*$:qMKJKD5CZ, .O$;<0##MKKKh*ZK0 $MVZ4.     ",
" ONV<o  <S*8zCVsX#CCKftZZDisKKKKsoXxnCSni6<7:5ZK0KK0%MKV:       ",
"  o+   OzZ7 O5Zh+0ZkkrO+,4+vKKKK< .$9C#  oNM#$CJhKKhDKs$        ",
"       OkJMX .0JrtV$Oo ;C4rLZrKJs<2#<b+#OXMZ5MJt;ZKKK0O         ",
"       XrJg   :KnfV,*O.NKNKK0X0sZKKCgKMCqoMKKKm,$KKKK#          ",
"        ,K5  .tKh0JKK* 5KKJso .%rmKJZN54*XhKKZ;.+VKZKi+         ",
"        :J4 .eKJ5<Kf;o #CKKZ7X   ;LZfso  XtKKV+ +CJ<<VMO        ",
"        ,K5+qLKro4m+oO &K5CJK5  XtKr;l;;0orZrhg:+NJ; *hfO       ",
"        <ZqHKKfo <KVCb$&ZO;ZK*  >DS$+Znzz;fK#.:hcmZ*  OftX      ",
"        <JKKKn#  ;siq0o-ZX O<X @:D< Oro  XgK#  .*nZ*   X,0o     ",
"        ,KKJZ*   .oo.. &ZO    .Ou,   X   XMzo   XiZ&     #1o    ",
"        ;J0;,.         $M.    .15.        O.    XtZ-      o&.   ",
"        &V*            O7      #.               .tJ4       .@.  ",
"        +M%             X                       XtD&        X   ",
"        X7                                      .,;             ",
"                                                                ",
"                                                                ",
"                                                                ",
"                                                                ",
"                                                                ",
"                                                                ",
"                                                                ",
"                                                                ",
"                                                                ",
"                                                                ",
"                                                                ",
"                                                                ",
"                                                                ",
"                                                                ",
"                                                                ",
"                                                                ",
"                                                                ",
"                                                                ",
"                                                                ",
"                                                                ",
"                                                                "
};
