/* XPM */
static char *f0f34fcd3f9a494af7eb0732fa36508bvaEJtBoodi97NW8C[] = {
/* columns rows colors chars-per-pixel */
"64 64 89 1 ",
"  c #5F0F0E",
". c #5E0F14",
"X c #5D0F1A",
"o c #5E1015",
"O c #5B111B",
"+ c #60100F",
"@ c #620F15",
"# c #620D1B",
"$ c #601116",
"% c #6F191D",
"& c #721716",
"* c #731817",
"= c #73161D",
"- c #71181D",
"; c #6D1720",
": c #6E1922",
"> c #731621",
", c #791321",
"< c #701923",
"1 c #EF0934",
"2 c #EE093C",
"3 c #F40736",
"4 c #F10835",
"5 c #F6043C",
"6 c #FA033E",
"7 c #F0083A",
"8 c #DD5905",
"9 c #DB5A09",
"0 c #E35605",
"q c #E15A01",
"w c #E5540B",
"e c #E1580A",
"r c #F4761F",
"t c #F6761E",
"y c #F1781F",
"u c #F96E2B",
"i c #F96E2D",
"p c #EF7721",
"a c #EF7922",
"s c #F37520",
"d c #F77521",
"f c #F77623",
"g c #F77225",
"h c #F67325",
"j c #F77426",
"k c #F87326",
"l c #F37822",
"z c #F47822",
"x c #F77328",
"c c #F87328",
"v c #EF0542",
"b c #EF0645",
"n c #F30342",
"m c #F60242",
"M c #F00643",
"N c #F60441",
"B c #F70245",
"V c #F10545",
"C c #F70444",
"Z c #FB0043",
"A c #FD0043",
"S c #F80442",
"D c #F80346",
"F c #FE0144",
"G c #F80444",
"H c #FE0048",
"J c #FEA736",
"K c #F7AF37",
"L c #FEAB33",
"P c #FFAA35",
"I c #FDAC36",
"U c #FEA73A",
"Y c #F7AF39",
"T c #FEA83B",
"R c #FDAA3A",
"E c #FDA83D",
"W c #F7B036",
"Q c #FEA541",
"! c #FDE55E",
"~ c #FDDC6B",
"^ c #FDE564",
"/ c #FDE863",
"( c #FEE469",
") c #FEEE9D",
"_ c #FEF09D",
"` c #FEE4A7",
"' c #FEEDA1",
"] c #FEE6A8",
"[ c #FEF1A3",
/* pixels */
"::OOOO::OO::OO:::::::;OOOOOO::::::OO:::<::::OO::::::::::OOOO::::",
"<:OOOO::OO::OO::::::::OOOOOO::::::OO:::<::::OO:::::::::;OOOO::::",
"::OO::OX::::OOOO::::::::::OOOO::::::OX::::::OO::::::::OOOO::::<:",
"::OO::OO::::OOOO::::::>>>>OO##::>>:%##::>>>>OO::::::::OOOO::::::",
"OOOO::OO::<:::OO:::::>VGBV>>VV>>MM>>bV##VNmM#OOO::::::OO::::<:::",
"OOOO::OO::::<:OO::::>,GZZm>>VV,,Gm,,VV##mZDm##OO::<:::OO::::::::",
"OO::::OO:::::;OO:::>VGFFZm#OX#VGFFGV##O#mZFFmV#O::::::OO::::::::",
"OO::::OO:<::::OO::>,GZFFmv#OO#mZFFZm#OO#MmFFZm##::::::OO::::::::",
"OO::::OO::::::OO:>VGFFZG,>OO:>GAFFAD#O::>,DZFFmV>:;:::OO::::::::",
"OO::::OO::::<:OO>,SZFAGV>:OO:>DAFFAG#O::>>VGFFZG,>::::OO::::::::",
"OO::::OO::<:::O#VGFFZG,>::OO:>GAFFAG>:::::>,GZFFDV>:::OO::::::::",
"OO::::OO::::::##ZZFFGV>:::OO:>GAFFAG>::::::>VGFFDG,>;:OO::::::::",
"OO::::OO:::::>MNFFAZ,>::::OO:>GAFFAG>:::<:;:>,ZAAAmM>:OO::::<::<",
"OO::::OO::::;>MCFFFZ,>;:::OO:>GAFFAG>;;:::::>,ZAFFBM>:OO::::<:::",
"OO::OOOO::::::##ZAFFGV>:OO:::>GAFFAG>::::::>VGFAZG,>::OOOO::::::",
"OO::OOOO::::::O#mAAFZG,>XO:::>mAFFZG>:::::>,GZFAGV>;::OOOO::::::",
"OO:;OO::::::::O#SAFFFFDV#O:::>GAFAAS>;:;:>VGFFZS,>::::::OOOO::::",
"OO::OO::::::::O#GAFFFFDm##:;:>GAFFAG>:;:>,GZFFmV>:::::<:OOOX:::<",
"OOOOOOOO::::::O#GAFFAAFFmV>:O#GAFAAG>:;>VGFFAZ##:::::<::::::OO::",
"ooOOOOOO::::::O#GFAFZZFFZG,>X#GFFFAG>:>,SZFFAG#O::::::::::::OO:;",
"89oO::OO::::::O#GAAm,,GZFFGV##DAFFAD>>VDFFAFAG#O::::::::::::OOOO",
"q8oO::OO::::::O#GAAG>>VDFFZG##ZFFFAZ,,GZFFFFAG#o:::<=-:::<::ooOO",
"q8oO::OO::::::O#GAAG>:##mZFFZZFFFFFFZDFFAAFAAGXOOO:%99-::::-99oO",
"89+o:;OO:<::--O#GAZD>:O#VGFFAFFFFFFFAFFFmZFFAG#OOO-*99-:::-*99oO",
"o+99%:OO:::-99->nZAG>:OO>,GZFFFFFFFFFFZG,,GZZG>:Oo99--:::-99+oOO",
"Oo88%:OO::<-99->MNAS>:OO:>VDFFFFFFFFFFmM>>MCAG=-Oo99-::::-88oOOO",
"Oo88%:OO:<<:==::##mm>:OO:%>,ZAFAFFFFAZ,>::>,m6e9oO--:::::-88oO::",
"O@99%:OO::<:::%-O#MM=-oo->>,ZAFFFFFAAZ,>=--=5308+o:::::::-99oO::",
"OOoo::OO:::::-99oO>=9888ew5DAFFFFFAFFFZNw088hhdd89%:::::::-=OO::",
"OOOO::OO::==-*88oO%*80qq0w6FFFFFFFFFFFAZw0qqttddq8=:::::::::OO::",
"OOOO::OO:%9888q8o$98ddtx36FFFFFFFFFFAAFF63hdLPddq8=::<::::::OO::",
"OOOO-=OO:%808889oo8qddji6FAF66FFFFFFDZFAF6chLLzdq8=::<:<==%:OO::",
"OOOo99oOO.88*-%%Oo8qdj36FFFZuiZFFAAZ,,ZAAFZ3ELddq8%::::-99>:OO::",
"OO.+88+oOo99-:::Oo8qhi6FFF53jj6FAFAD==GAFFF5QTddq8*-:%-*88&=OO::",
"Oo98dd89oO--::OOOo803ZFAF6QTsk6FFFFZee6FFFFA63jddd89%-98dd89oO::",
"Oo8qddq8 o--::OOOoew6FFFF5TPsj6FFFF6006F66AFFZihddq8=-8qddq8+o::",
"Oo8qddqq8889-:OO:>56FFFFF5TIPT6AFFF60065QQ5FFF63htq8--8qdddd89-:",
"o+8qddqqqqq8*-OO>,ZAFF66A5UIIU6AFFF60065TT5FFAF6ikq8&*8qddddq8-:",
"88ddPPsddddd89o#MGFFAZww65UIIU6AFFFZxj65TT5FFFAF63xt88qqddddq8=:",
"qqddPPzddddd88@#ZZFFZ50065UIIU6FFFFZjj33TT5A66FAF6ihqqqqddddq8-:",
"qqddIIsddddddjNZFFZD,=e065UIPJ6FFFFZksUTPU55QE5DAF630qqqddddq8-:",
"q8ddIIzdddddjuZAFFGM>-8065UIIU6AFFFZktPIIU65TT35FAF6w0qqddddq8*-",
"qqddPPIPzzPT36FFAZ,>:-8065UIIU6AFFFZktPIPU55TIEQ5HAF630qddPPdd88",
"qqddPIIIzzLT5AFFAZ,>-*8034TIPT5AFFFZktPIIT65PITQ5FFAA60qddPPzdqq",
"ddddPIIIzzPT6AFAFADNe8ddTTIIsj6ZFFFZktPIIU55TT45FFFFF60qddIIddqq",
"zddsTIIPzdIE6AFFAAAZw0ddPIIItk6FFFFZkdPIIT14EQ5DFFFFFZ0qddIIldqq",
"ddPI!!IPds^(5FFFFFFA63ktPIIItk6FFFFZjsPIII(~46FFFFFFF60qddPPIPsd",
"ddPI!!IPzy^(5FAF66AFF6uxIIIIth6FFFFZjsPIII(~5DFFZ6FFF60qdtIIIIld",
"ddLI!!IPdsIE6ZA6ii6FFAZ3(/IPtk6FFFA6UPIIIT45FFF6ww6FF6ctds^!IPzd",
"ddIK!!IPzzPT6AFZjx36FFF5~(IPtk6FFFA5PIIITE5DFFF6006FF6ctda!!IPzd",
"ds^!WIIPttPT5FF6cdjiZFFF54EPtk6FFAF6UIIT46FFFFF6006AFZkdPI!!IPzd",
"zl!!KIIPytIE5A53cdtj35FFD5QTdk6FFFA6TITE5DFF56F600NGFZktPI!!IPzd",
"II!/))atPI!(5mQTddddTQ6FFF53jj6AFFF5TT46AFF5QQ5608=,D6hdII!!IPzd",
"IW!/))sdPI/(14TPddddPE5FFFHZiiZFFFF6QQ6DFF54ET5608*=53jsII/!IPdd",
"__/!KTttPI!!((IPzdddPT6AAFFF66FAFFFF66FFD5ETIT560q88hjPI!//!IPzd",
"[_/!IPyyIK///!IPzdddPT6AFFFFFFFFFFFFFHFFN1UIPU330qqqtdPI///!IPzd",
"['KIztPI!/__/!IPzdddPT6AFFFFFFFFAFFFFFFN]'pzzd00qqdtPIII__/!IPzd",
"['IIdtPI!/[[//IPzdddPT6FFFNN66FFFFFF35N2')ltddqqqqddPIIK'[//ILzd",
"[_IPttPI!/'[[_IIzdddPT6AFN]'TQ6DFAD5~(''//sdqqqqddddPI!/'[[_IIzd",
"))IPsyIK/('[[_IIzdddPT5AN2''YT356651(/_[//sdqqqqdddsIK//'[[)IIzd",
"ITyyPI!/_[[_//IPzdddLT5N`'['))TTkhUT!/'[_)ldqqddddTI)[__'[['IPsd",
"PPttII!/[[[_//IPlhddPT37'[[[')IPssLI//'[['ldq8dddsII_[[[[[['KIld",
"zsddPI!/'[[[_)ah**jdddTT//'[['IIPI!/_[[[['ldzdddPIPI//_'[[[_/!IP",
"ddddPI!/[[[[[)lh%%hdddII!/[[['IIII!/[[[[['ldddddPIII!/[[[[[_/!IP"
};
