/* XPM */
static char *_c466c1af47e40db9acdd61346450d01[] = {
/* columns rows colors chars-per-pixel */
"64 64 256 2 ",
"   c #040102",
".  c #0B0101",
"X  c #04020A",
"o  c #09030A",
"O  c #0D090B",
"+  c #090902",
"@  c #130301",
"#  c #190300",
"$  c #130904",
"%  c #1B0A03",
"&  c #130C0C",
"*  c #16080B",
"=  c #1C1716",
"-  c #120C0F",
";  c #230B02",
":  c #281507",
">  c #361A02",
",  c #251915",
"<  c #36190F",
"1  c #3C2603",
"2  c #2B231D",
"3  c #382518",
"4  c #2C2525",
"5  c #362C28",
"6  c #3B322A",
"7  c #3B3532",
"8  c #281F24",
"9  c #472904",
"0  c #493505",
"q  c #593806",
"w  c #472A15",
"e  c #563816",
"r  c #4E3013",
"t  c #633A04",
"y  c #7B3C17",
"u  c #69380F",
"i  c #493729",
"p  c #543A25",
"a  c #473A34",
"s  c #653D24",
"d  c #7E3B2A",
"f  c #401703",
"g  c #59461A",
"h  c #574613",
"j  c #694607",
"k  c #754806",
"l  c #79520D",
"z  c #6C4B1B",
"x  c #674617",
"c  c #774A17",
"v  c #755314",
"b  c #79561A",
"n  c #6D5418",
"m  c #796016",
"M  c #5A4528",
"N  c #5B4B36",
"B  c #534E32",
"V  c #694927",
"C  c #774E24",
"Z  c #755323",
"A  c #7A5A24",
"S  c #795729",
"D  c #654B36",
"F  c #6B5537",
"G  c #745A3C",
"H  c #795A37",
"J  c #6A522A",
"K  c #7C6238",
"L  c #766831",
"P  c #5D613E",
"I  c #433E42",
"U  c #584941",
"Y  c #694F43",
"T  c #765B46",
"R  c #6C584B",
"E  c #7A6648",
"W  c #7B6755",
"Q  c #6B6949",
"!  c #746E64",
"~  c #813F23",
"^  c #864909",
"/  c #885608",
"(  c #874816",
")  c #865919",
"_  c #955719",
"`  c #92530F",
"'  c #87641A",
"]  c #96651A",
"[  c #9C7018",
"{  c #AB6F18",
"}  c #864A24",
"|  c #855928",
" . c #955829",
".. c #865B36",
"X. c #975C35",
"o. c #8D4C31",
"O. c #846324",
"+. c #8A662A",
"@. c #956928",
"#. c #98742A",
"$. c #8C6534",
"%. c #8B6C34",
"&. c #8C6C3C",
"*. c #856539",
"=. c #956937",
"-. c #987638",
";. c #8A7338",
":. c #A6692A",
">. c #A67729",
",. c #B87D27",
"<. c #A56637",
"1. c #A57A38",
"2. c #B67B37",
"3. c #A35B34",
"4. c #C27E1C",
"5. c #845D45",
"6. c #876A47",
"7. c #956B45",
"8. c #8B7249",
"9. c #9A7443",
"0. c #9C7B44",
"q. c #967548",
"w. c #846C56",
"e. c #8B7558",
"r. c #977957",
"t. c #A36844",
"y. c #A37D44",
"u. c #A5794A",
"i. c #AE7B4E",
"p. c #877765",
"a. c #957B65",
"s. c #917E70",
"d. c #BB851B",
"f. c #9E8038",
"g. c #BA8529",
"h. c #A9833B",
"j. c #B88738",
"k. c #B39038",
"l. c #96801D",
"z. c #C4841C",
"x. c #C58A1B",
"c. c #CB8B1E",
"v. c #C7861B",
"b. c #CA9112",
"n. c #C58522",
"m. c #CB8624",
"M. c #C48B25",
"N. c #CB8A25",
"B. c #CB862B",
"V. c #C68B2B",
"C. c #CB8A2A",
"Z. c #C3852B",
"A. c #D08B23",
"S. c #D28B2A",
"D. c #CB9229",
"F. c #D6942B",
"G. c #C48B33",
"H. c #CB8C33",
"J. c #C78938",
"K. c #D28C32",
"L. c #CC933B",
"P. c #C99537",
"I. c #D89736",
"U. c #E39B39",
"Y. c #E59B2B",
"T. c #EBA237",
"R. c #E2941E",
"E. c #9C8246",
"W. c #988358",
"Q. c #AB8544",
"!. c #A78548",
"~. c #B58A49",
"^. c #B99349",
"/. c #A88756",
"(. c #B38D58",
"). c #B3935B",
"_. c #B99458",
"`. c #AE904F",
"'. c #9B8467",
"]. c #988A74",
"[. c #A68B68",
"{. c #B38C66",
"}. c #A9926A",
"|. c #B99867",
" X c #AA9378",
".X c #B89A77",
"XX c #A88C75",
"oX c #BDA278",
"OX c #B2AC74",
"+X c #C78C44",
"@X c #C79547",
"#X c #D69A48",
"$X c #C59858",
"%X c #D59D56",
"&X c #C68B52",
"*X c #CAA35A",
"=X c #D8A259",
"-X c #D6A248",
";X c #ECAA53",
":X c #C29D6A",
">X c #C49C75",
",X c #D59A62",
"<X c #C9A468",
"1X c #D5AA68",
"2X c #CAA57C",
"3X c #CDAA7C",
"4X c #C6A578",
"5X c #D4AB78",
"6X c #D9B478",
"7X c #D1B472",
"8X c #E7BD77",
"9X c #F1B86D",
"0X c #E49F44",
"qX c #F6C475",
"wX c #DEC078",
"eX c #AC9884",
"rX c #B79984",
"tX c #BAA487",
"yX c #B9AE90",
"uX c #948C81",
"iX c #C59D81",
"pX c #CBA682",
"aX c #CCAB83",
"sX c #C7A987",
"dX c #D2AD84",
"fX c #D4AE89",
"gX c #CBB38A",
"hX c #D4B38C",
"jX c #D7B686",
"kX c #C7AC95",
"lX c #C9B797",
"zX c #D6B996",
"xX c #E5BC89",
"cX c #CFB8A3",
"vX c #E3BDAA",
"bX c #CFC793",
"nX c #EAC785",
"mX c #F7CA89",
"MX c #E7C898",
"NX c #F4CA96",
"BX c #FCD897",
"VX c #F3D38B",
"CX c #D8C6A5",
"ZX c #DACAB8",
"AX c #D6CBB9",
"SX c #E5CAA9",
"DX c #FCD9A3",
"FX c #E2CCB5",
"GX c #E7D6B9",
"HX c #F3DBBC",
"JX c #FBE3AD",
"KX c #D9D2C2",
"LX c #E8D9C7",
"PX c #EEDAC8",
"IX c #F7E7CF",
"UX c #FFEEE2",
/* pixels */
"C.N.N.N.N.N.A.N.m.n.I.Z.J.+XJ.` *XQ.-.+.<Xj l.k.x dX_.#.] j.>.j.~.-.v O.-.<X1X<X1X6X$Xl j.@XP.g.j.j.j.j./ Z.H.K.m.F.c.A.z.N.n.K.",
"C.N.N.N.N.N.A.N.C.C.C.,.@Xj.+Xk 1XQ.| xXm ' k.m ).2X%.l #.1.j.2.) O.O.-.~.^.b j t l $X1X] / j.@X^.@X>.k >.G.,.C.n.c.4.A.N.F.m.B.",
"C.N.N.N.N.N.N.N.m.C.Z.G.G.+X~.@.6Xq jXy.' k.f.' <X0.t t ~.h.~.@.-.-.!._.y.t ) #.>.#.[ -X8X&X) @.#.k @X] [ #XL.H.C.C.S.F.m.N.B.m.",
"C.N.N.N.N.N.N.N.C.V.G.L./ 1.) ~.Q.-.:Xt h.#.#.+.<X+.x Z ~.>.@.) 1.`.-.-.c y._._.h.#.k.h.j.1XnX1.1.wXh./ j.+XG.G.Z.n.n.N.z.N.S.C.",
"N.N.N.N.N.N.N.N.N.Z.J.@Xk @.) 1Xb :X/.x ~.^.' -.6Xc u $.~.h.+.=.Q.h.~.) y.y.t j c c j k 1.1.1.^.*X^.' ] @./ >.@XL.H.C.C.S.S.S.m.",
"N.N.N.N.N.N.N.N.n.G.G.@X' +.(.<Xx 3X7.=.Q.#.1.k <Xj u u.0.O.Z ).Q.k #.^.Q.k 1.=.9.(.Z t k Q.~.*Xh.-.nXnXnX*X] ] G.L.L.H.I.m.m.N.",
"N.N.N.N.N.N.N.N.C.G.j.j.) O.).%.O.|.%.=.+.O.#.q 6X| q -.!.*.S *.!.6Xl #.>.1.h.^.| C x =.-._.Q.#.+.`.`.1.$XmXmXj.] >.{ { C.n.m.F.",
"N.N.N.N.N.N.N.C.H.G.@X1.v !.{.S q.%.|.q (.:Xh.^.=.0.+.!.*.g W.|.|.1.<X' >.k.h.) k j A | Z C | +.-.n j h.) Q.8XmXj.>./ ^ H.I.z.z.",
"N.N.N.N.N.N.N.C.V.g.@X@.j 3X&.&./.A !.Q.u.=.h.h.).A E.L S oX8.;.h.h.^.$Xl Q.| O.@.) #.Q.).$.Z V q q O.v v O.Q.$XmXqX] +XG.,.I.z.",
"N.N.N.N.N.N.N.C.L.#X@.#.%.jX8.6./.%.%.-.z /.0.j %.;.n ;.W.F 0 h Q.>.~.@.=.A c +.t #.#.~.b | z C Z !.`.+.-.!._.<X+.+.h.+X@XV.{ A.",
"N.N.N.N.N.N.N.C.Z.>.>.1X+.}.oXx 0.O.!.j `.q.S h m n 0 K J h E 0 #.h.h.l <Xc x $.9.$.+.y.y.| %.!.0.A b -.+.b %.j b +.@.2.j.L.I.z.",
"N.N.N.N.N.N.N.N.L.,.>.1.A S zX[.+.$Xj -.).q : F OX7XW.OXCX'.g 1 b ^.1.k 1X-.y.5X4XjX5Xz y.-.Q.%.b ).6X7X`.;.).6X!.$.+.k ^ [ z.N.",
"V.N.N.N.N.N.N.N.g.#Xk 1XA 8.H 8.(.b !.!.&.% @ E bXbXyXbXbX].B @ h _.Q.j ^.#.h.^.+.y.|.| (.%.v =.jX(.+.j j j j A dX4Xc ) 2.L.n.F.",
"V.M.N.N.N.N.N.N.I.g.>.1._.x J *._.j Q.).e @ : B P OXbXtX].! Q : q !.~.k $X' ] ' j _.6Xq v O.-._./.t v h.Q._.0.%...MX9.=.$Xg.M.D.",
"V.M.N.N.N.N.N.N.,.L.+Xl 7XS q./.:Xk Q.!.r 3 3 B P Q Q B B 5 3 1 O.h.-.j 1X-.-._.j -.<Xj $X7XVX%.c !.`.-.+.-.%.0.Z 7.NXc +XL.C.z.",
"V.V.N.N.N.c.N.N.C.G.+X1.) -.|.x 6X) O.).G i eXyX].B L B ].yXw.1 Q.h.' v 5X%.x /.b %.$XO.-.v 7X%.9.9.v t > 0 b n n q 5X<Xk G.V.I.",
"C.C.N.N.c.c.c.N.S.Z.J.+X@.#._.-.+._.q /./.S hX4XaXq.W..XMXoXK !.-.j O.#.6Xu.r q.`.l 0.A &.n ).%.S e q b =.%.' ' -.O.0.<X6X>.] ] ",
"C.C.N.N.c.c.c.N.z.C.,.@X_ ~.2.h.#.%.!.-.u.x (.jXjX3XdXjX|.z 0.A q | !.<X_...s 5.`.O.n S q.q !.4Xx K &._.(.%.*X7X7X*X_.6X*X/ ) ] ",
"C.C.N.N.c.c.c.N.C.L.@X:.:.~.l -.!.j ).9.{.Z .X2X.X.XfX.XS r.S 9 A <X<X3X*.2XXXs !.`.b =.O.v ).(.K W.).E.Z 0.=.wX-.q -.%.' [ j.j.",
"C.C.N.N.c.c.c.N.C.Z.,.>.*X1.v !.0.x &.|.H r.pXzX}.6.sX6.8.V *.*.4X|.e.J aXpXw.e *.%.A ).b j -.b 0 x L `.$.S n +.).%.!.+.k.-Xg.P.",
"C.N.N.N.N.N.N.N.H.g./ 9X<Xv -.!.x S .X/.r H D 6.sX[.zXT 6.V '.[.J G XXkX'.M > > x q.&.0.#.l b -.0 h E.%.Z S |.u.-.y.$.$Xk.D.D.d.",
"N.N.N.N.N.N.N.V.L.[ @X8X@.j 0.z K oX6.> > 9 w F '.'.kXD E 6.W.> > r 3 : w e XX'.x |.&.q `.#.v 4Xq g h j q.>X=.| ) (.$X] L.d.x.N.",
"N.N.N.N.N.N.N.V.V./ *X1XO.A *.x 6.gX1 J G G p E W tXW tXXX'.e.9 M N a W D e. Xe.G r.H x Q.' b jX1 E 0 E.3X7.=.$X1.@.1Xk M.x.F.c.",
"N.N.N.N.N.N.N.V.P.,./ VX_.A Z *.8.6.G XXkXM > F T w.F N XXW.F F [.w.U 5 U T D E M 6..X/.v b :X2Xr g L L |.| $Xj.@X` ] [ I.F.z.N.",
"N.N.N.N.N.C.C.V.g.#X[ ' -.|.Z 9 *.J  X[.D M F T p.eXeX].M J e.E W.'.].i s.]. Xe p.tXlX}.n |..XV i B g x <XO.j.j.G.[ ` ,.F.N.m.S.",
"c.N.N.N.C.C.C.V.H.g.j.>.Q.b q V K J r.6.F e. XW XXtX XtXF J 8.H M e.R s.p. XyX XZXFXlXH q.r.6.D i p h %.5X@.j.g.D.g.g.G.N.c.B.K.",
"c.N.N.N.C.C.C.C.M.V.P.g.*Xj 9 S q.H K [.lXcX].E yXw.FXPXCXgXzX4X|.6.F e. XlXCXCXLXLXT V G e.s w.Y D h )._.@.g.M.c.D.K.C.z.m.B.K.",
"c.c.N.C.C.C.C.C.M.D.M.G.@XQ.c C *.K H .XzXtXT eX].e.IXCXSXsX.XgXoXgXzX'.E eXGXGXPXAXkX[.cXY w.Y N R V <X) j.g.D.x.c.C.n.z.N.H.B.",
"c.c.N.C.C.B.C.N.F.z.d.D.,.%X1.c q *.K [.tX'.].yXw.PXGXFXHXMXoX4XaXaXoXhXrXR HXGXZXFXFXGXeXR D F p M A _.l @XC.D.N.N.C.C.N.N.B.Z.",
"c.N.N.C.B.B.C.N.c.c.x.M.L.2.k } u *.6. XtXT kXR kXPXFXGXSXzXaXaX.X2X3X3X Xa.IXCXLXGXGXlXY R M tXE V %.h._ j.H.N.N.N.H.H.N.x.N.C.",
"c.N.N.C.B.B.C.N.v.F.c.z.0X{ u =.7.*....XrX< w.N D D kXHXSXsX2XaXhX2X|.jX6.cXZXGXGXGXCXlXY Y D }.r.;.-.1.@.:.H.B.m.B.H.H.N.x.N.D.",
"c.N.N.C.C.C.C.N.F.4.c.D.,.G.+X+X$X..V .XkXD p T D T M e.rXfX2XaX>X3X3XdXT cXPXGXLXGXCXGXa.Y e.6.S E.#.^._ ] H.K.S.K.H.Z.N.D.N.z.",
"N.N.N.C.C.C.N.N.N.N.N.N.C.C.C.G.j.@.e rXzXtXJ > p p H {.pX2X>X3X2X5X4XaXw.lXLXKXLXAXFX XD V {.Z /.!.-.#.@XG.g.K.N.A.S.S.C.C.V.G.",
"N.N.N.N.N.N.N.N.N.N.N.N.N.N.N.V.L.l V rXtXgXtXE 6..XhXfX>XpXfXdX<X5X4XgXE cXKXLXAXUXcXV *./.9.=.3XO.<X' >.P.L.M.N.A.A.m.m.C.G.G.",
"N.N.N.N.N.N.N.N.N.N.N.N.N.N.N.V.P.) V rXzXtX.XsXFXsX}.>XhXaX>X>X5X<X3XsXE CXKXLXLXKXE  XhX7.=.(.).).!.nX) j.g.C.S.A.A.A.N.N.M.M.",
"N.N.N.N.N.N.N.N.N.N.N.N.N.N.N.V.g.#.9 rXrXF w G T F J H a.sXzXhXdX:XjX}.e.GXKXAXLXeXe.r.V &./.:X(.MX%.7X1.#.j.V.C.N.m.N.A.N.c.x.",
"N.N.N.N.N.N.N.N.N.N.N.N.N.N.N.V.P.>.e kX'.V F e p p V V V J e..X>X4XhX[.e.PXKXAXIXW D T e 7.u.5X0.4X5X%.$X@.^.j.G.B.m.c.c.c.c.c.",
"N.N.N.N.N.N.N.N.N.N.N.N.N.N.N.V.P.>...vX XK lXtXeXtX.Xa.6.F p 9 {.3XaX[.e.IXAXLXZXp.r. X*.7./.).%.&.DX0.<X+.h.@X+XL.H.N.c.c.c.c.",
"N.N.N.N.N.N.N.N.N.N.N.N.N.N.N.N.M.>...fX.X6.[..X.XXXsXSXzXr.G 6.{.dXpXr. XPXZXPXcXE SXzX&.z n ).<Xz jX%.jXO.#.1.2.j.J.H.C.N.N.N.",
"N.N.N.N.N.N.N.N.N.N.N.N.N.N.N.N.D.g.| iXaX4X*.g G G H H H 8..XzXpXaXfXE CXGXGXLXtXa.sXhX4XS x n |.z 3X&.4XE.q v ( ] 2.J.J.H.C.V.",
"N.N.N.N.N.N.N.N.N.N.N.N.N.N.N.N.z.L.c >X3X4XzXH 4XfX>X|.{.fXaX2X2XfXsXzXFXGXZXPXw..XzXfXzX4Xz q |.z 3X*.z dXq c k ( ^ ` _ +X+X+X",
"N.N.N.N.N.N.N.N.N.N.N.N.N.N.N.N.v.#Xc >X3XjXq./.pXfXdXdXpXdX2X4X2XpXsXCXGXCXUXlXe.zXzXhXaXjXq.q (.A jX&.q q.Z =.=.( y  . ._  .i.",
"N.N.N.N.N.N.N.N.N.N.N.N.N.N.N.N.c.H. .{.jX0.0.2XpX2X3X4X2X>X3XdX4XpXsXCXHXHXkXe.rXvXzXhXhXjX/.S 4Xz 4X&.z 9.$.| X.t.<.( (  .X.| ",
"N.N.N.N.N.N.N.N.N.N.N.N.N.N.N.N.N.G. .i.jX9.!.jXfX4X3X2XhX2X3X4XdXpXCXHXlX'.K sXzXhXzX/.hXhX[.r./.9 3X7.z *.C C i.o.X.t.i.y c t.",
"N.N.N.N.N.N.N.N.N.N.N.N.N.N.N.N.D.P.u.H zX.XK oX.X4XaX>XpX4XdXaXhX.XW.6.8.'.SXgXsXzX>X..fXzX.Xr.q.q 2Xq.x c |  .X.=.t.X.t.} | 9.",
"N.N.N.N.N.N.N.N.N.N.N.N.N.N.N.N.d.j.i.H pX.X}.sXzXgXpX2XhXhX4X[.6.6.r..XzXlXtXtXsXHXq.r.zXhX.X8.q.C r.q.| | =.( =.<.X.X.=.c ..:X",
"N.N.N.N.N.N.N.N.N.N.N.N.N.N.N.V.D.@X..H r e J M E '.oXsX[.6.K 8.{.pXhXgXzXzX6.sXzXSXH .XSXsXgX8.J ..q.q.Z b  .( X.<.X.<. .c &.MX",
"N.N.N.N.N.N.N.N.N.N.C.C.C.C.C.V.g.] ..w G F E T F M e E a.eXrXkXkXtXsXtXtXe.e.tXkXsXT [.zXzXSXe.G 8.r.7.C =. . .( <.<.<.| c -.DX",
"c.A.A.N.n.N.C.m.n.C.C.n.V.L.H.g.^ c V T ZXuXQ 4 . : ; i W R , o * $ % % @ ; i : @ 6 $ . i W p W N E e.H C u.o.} 3.3.<.X.c @.1XnX",
"A.A.N.m.m.C.C.C.D.n.n.H.J.+X2._ ( } s T ! = o = , 6 ; @ .     X X X o . @ 3 3 % $ 5 O   . $ % W ,   N w e ..t.t.t.<. .} ) -.1XnX",
"S.N.m.C.B.B.C.N.z.D.M.G.#X2._ ( y 7.s : .       = 6 : @ . .   X X X   . : a % . = 5 X X     : p.  + ].: ; s 7.=.X.} } | ) (.VXnX",
"H.B.B.K.K.C.n.N.S.n.H.J._ (  .} t.i.e ; . & o   5 6 @ . . - O X X O   $ 5 i @   5 7     & $ % 5 . = R @ > V q u C | c $.<XnXVX6X",
"J.J.H.S.N.N.N.C.J.J.:.( ( y ( <.=.7.p : $     o 7 5 . . .   X X X O   , a , . . 5 4         . . . * * . # r e S ..$._.NXnXnXVX6X",
"J.K.B.N.c.N.C.J.:.( y ~ ~  .:. ...7.D # . o O   4 4 . @ * O X O     . 2 a . . & 7 =   o o   $ * * . . @ > x &.O.9.xXBXNXmXxXnXnX",
"C.C.N.v.N.C.g.:.y ~ d o.t.<.@.@.u.T w ; $ &   o 4 7 . . . o X X     & 5 2   . = I -     . . . . @ # r E *.A 0._.6XmXnX8X8XmX8X1.",
"v.N.N.N.H.J.:.( } o.t.t.X.X.@.=.V w # @ $ =       5 -   o o X O O   , 7 & o   , 5 . + . . @ @ @ r 6.....-.<X*X1XwXnX8XmXmX1X1.( ",
"b.b.x.H.+X<.o.y o.t.7.| =.u...e > 3 # @ * 4   o   8 &   o   o o .   7 5     o = 7 . . # @ % w J ..<.~.&X=X-X@X9X9X9XmX8X2.` ` ` ",
"b.b.M.J.&X( u X.u.X.=.9.S r f > ; % @ . , 4   o   = o   o   o     , 7 , $     7 2 @ @ @ r e.8.S ~.#X=X#X#X-X;X9XqXqX=X:.` ` :.9X",
"x.D.g.J.$XX.t | =.$.| q > > < @ . . % . 6 2       - o       O     5 a & . . . a ; # > V 9.=.9.1X#XI.U.U.I.I.9XqXqX=X` ` ` :.mXmX",
"V.G.+Xj.) t t | &.&.0 ; > ; . * . . , $ 7 , .     o o o   o O   $ 5 7 $   & , 3 > V $.+.1.&X%X%X0XY.U.T.U.;XqX9X=X^ _ ( 2.BXmXmX",
":.` ` :.] t t $.8.1 : 3 @ . $   . . $ , a $ . . o   o o   o     , 5 2     $ , p q.=.1.&X%X#X0XI.F.U.U.F.I.9X9X,.` :.^ &XmXmXBXmX",
"i.,X$X&X,X) q x 1 3 ; . * &     +   = 5 7 .   .     X         . 2 6 $   & . % E 7.~.%X;XI.I.0XI.F.U.U.S.0X;X,.` ` _ i.mXDXnXmXBX",
"+X1X~.<.5X7.V ; < , *   o     + + + ! B 2     .     X   o o   * 5 5 .   *   % T $.&X#XU.U.Y.Y.F.T.I.U.I.9X;X_ _  . .xXDXNXBXnXVX",
"j.%X1X5XxX..5.< , @ o o o O +     2 KXU &   +     o o   O O   , i , . . o $ 3 e =.%X#XI.T.R.R.T.F.I.0XH.;X=X^ _ ( 5XNXBXNXnXDXVX"
};
