/* XPM */
static char *a0b41b8cbff741bbe1f08674fbfcb56cozDxYPIW30telL4P[] = {
/* columns rows colors chars-per-pixel */
"64 64 222 2 ",
"   c #292928",
".  c #2D2D2D",
"X  c #302E2F",
"o  c #2D322D",
"O  c #2D3B2E",
"+  c #30322E",
"@  c #313B2F",
"#  c #2E2E30",
"$  c #312F31",
"%  c #2F3231",
"&  c #2E3B31",
"*  c #323232",
"=  c #323C33",
"-  c #393B35",
";  c #3B3B3B",
":  c #2C442E",
">  c #2D4A2E",
",  c #31422F",
"<  c #2E542E",
"1  c #30592F",
"2  c #2F4430",
"3  c #2F4930",
"4  c #324433",
"5  c #3A4535",
"6  c #324C34",
"7  c #394D37",
"8  c #2F5331",
"9  c #2F5830",
"0  c #335434",
"q  c #325C34",
"w  c #395738",
"e  c #2F662F",
"r  c #2F6632",
"t  c #336335",
"y  c #336B35",
"u  c #356639",
"i  c #376738",
"p  c #3B643A",
"a  c #396C3B",
"s  c #2F7333",
"d  c #337435",
"f  c #337C36",
"g  c #397C37",
"h  c #357539",
"j  c #3C743B",
"k  c #357B39",
"l  c #3A7D3B",
"z  c #424F3B",
"x  c #44593A",
"c  c #4A653D",
"v  c #42683B",
"b  c #4C6D3E",
"n  c #45753B",
"m  c #417C3D",
"M  c #387640",
"N  c #434343",
"B  c #4D4D4D",
"V  c #4A5E42",
"C  c gray33",
"Z  c #5D5D5D",
"A  c #4B6441",
"S  c #446940",
"D  c #4B6C42",
"F  c #516A44",
"G  c #497842",
"H  c #537545",
"J  c #547A44",
"K  c #567848",
"L  c #646464",
"P  c #6D6D6D",
"I  c #717171",
"U  c #7A7A7B",
"Y  c #348337",
"T  c #398336",
"R  c #368A36",
"E  c #368439",
"W  c #3A833A",
"Q  c #358A3A",
"!  c #3C8A3C",
"~  c #3C923D",
"^  c #468638",
"/  c #42833D",
"(  c #438A3D",
")  c #4B9035",
"_  c #44923E",
"`  c #57933A",
"'  c #6E9130",
"]  c #5FA133",
"[  c #7CA938",
"{  c #3E8840",
"}  c #428342",
"|  c #428A40",
" . c #4D8D43",
".. c #4B894C",
"X. c #5C864A",
"o. c #598848",
"O. c #459242",
"+. c #4C9443",
"@. c #4D9C44",
"#. c #4B954A",
"$. c #589547",
"%. c #539D45",
"&. c #549448",
"*. c #549C49",
"=. c #5D9D4D",
"-. c #4F8F53",
";. c #548956",
":. c #57965B",
">. c #63954D",
",. c #629B4E",
"<. c #679A53",
"1. c #6A9E53",
"2. c #57A14A",
"3. c #5AA549",
"4. c #5CA44B",
"5. c #5FA851",
"6. c #62A34E",
"7. c #69A24F",
"8. c #62AA4E",
"9. c #6AAD4A",
"0. c #74A843",
"q. c #69B44C",
"w. c #73B348",
"e. c #65A550",
"r. c #6CA453",
"t. c #64AB51",
"y. c #6BAC54",
"u. c #6FAF59",
"i. c #71AD57",
"p. c #67B353",
"a. c #6CB353",
"s. c #6DBA53",
"d. c #72B456",
"f. c #7BB454",
"g. c #74BB56",
"h. c #78BD57",
"j. c #74B55A",
"k. c #75BC59",
"l. c #7ABD5B",
"z. c #699668",
"x. c #6DA36B",
"c. c #7BBB63",
"v. c #73C355",
"b. c #7BC257",
"n. c #76C35A",
"m. c #7CC45B",
"M. c #7BCB58",
"N. c #7DCA5B",
"B. c #7EC462",
"V. c #99B02A",
"C. c #9CB92D",
"Z. c #8CAD35",
"A. c #93B436",
"S. c #A9B633",
"D. c #B4C720",
"F. c #AAC83B",
"G. c #B8C935",
"H. c #B5CC3A",
"J. c #AED23B",
"K. c #BAD43A",
"L. c #DBDE1F",
"P. c #DDE41F",
"I. c #E9EB1A",
"U. c #C8CD2A",
"Y. c #D0CE2C",
"T. c #CCD427",
"R. c #CDD32A",
"E. c #D6D827",
"W. c #C3CC32",
"Q. c #C6D733",
"!. c #DBE327",
"~. c #C0E03F",
"^. c #E1E823",
"/. c #87BB4C",
"(. c #94BB44",
"). c #85BD51",
"_. c #83BB6A",
"`. c #8ABA78",
"'. c #89C34E",
"]. c #97C345",
"[. c #96CC4B",
"{. c #87C954",
"}. c #80C55B",
"|. c #82CC5D",
" X c #88D056",
".X c #83D15D",
"XX c #91D25C",
"oX c #A5C843",
"OX c #A6D646",
"+X c #82CC62",
"@X c #88C86A",
"#X c #84D161",
"$X c #89D666",
"%X c #8DC773",
"&X c #95CB7E",
"*X c #888888",
"=X c #979797",
"-X c #83A584",
";X c #9BB897",
":X c gray64",
">X c #ACACAC",
",X c #B5B5B5",
"<X c #BDBDBD",
"1X c #99C787",
"2X c #9FC697",
"3X c #A7CA96",
"4X c #AEC8A8",
"5X c #B1CDAA",
"6X c #B6CCAE",
"7X c #BBD3B6",
"8X c #BFE0B3",
"9X c #C2D3BA",
"0X c #C2C2C2",
"qX c #CCCCCC",
"wX c #C6D3C5",
"eX c #D4D4D4",
"rX c #D6D6D8",
"tX c #DDDDDD",
"yX c #CCE5C7",
"uX c #E3E3E3",
"iX c #E9E9E9",
"pX c #F3F3F3",
/* pixels */
"* . . . * . . . . . * . . + * . . * + . + . * * y k E E T l W W T W T T W E k W h 4 o % . * * . . * * . . * . . . . . * . . . * ",
"* . . . * . . . . . * . . . * . . . * . * o t t f W 8.8.8.4.w.C.C.C.[ 8.t.8.4.4.f y t 0 . % * . . * * . . * . . . . . * . . . * ",
"* . . . * . . . . . * . . + * . . * q < D H 2.*.2.3.m.b.b./.H.R.E.E.G.oXb.b.k.l.2.*.*. .8 0 . # . + * . . $ . . . . . * . . . * ",
"* . . . . . . . . . . . . . * . o O W g e.d.l.k.h.d.l.h.k.(.W.Y.T.Y.W.G.h.k.d.l.h.g.d.8.l W O % . . * . . . . . . . . * . . . . ",
"* * * * * * * * * * * * * * - q ! ! #Xm..X}.#X+X.XN.|.|.|.}.OX!.I.^.J. X+X|.}.#X#XN.N.|.N.+X{ p = = * * * * * * * * * * * * * * ",
"* . . . * . . . . # . . . o y / 8.8.m.j.oXoX@X4X%Xd.l.b.l.(.F.[.R.oX].H.l.l.1X4Xl.l.k.b.j.b.t.,.G y * . . * . . . . . * . . . * ",
"* . . . * . . . * * * . 4 q t.y.m.N.N.k.K.Q.+X1X@Xl.N.m.m.'.[.}.oX'.0.' N.m.&X1Xm.b.J o.l.m.}.1.o.8.q 4 . * . . * * . * . . . * ",
". . . . * . . . . . $ o w ( N.d.l.b.'.).K.W.'.'.g.y.a.a.a.y.g.l.b.l.H @ r.r.y.j.g.r., x j.h.r.H D m.( p 4 = . . . . . * . . . * ",
"* * * * * * * * * $ - 0 *.+X$Xb.M. X^.E.^.E.P.!.] W E E E W 2.n.|.N.X.; * * t O.d.z - c m.b.% = H #X.XN.%.W = * * * * * * * * * ",
". . . . . . . . . % >.,.a.l.B.d.g.h.'./.H.W.'.).a.*.f f f z.-X .g.k.7.$.. . q k m 4 X.r.,.x . x 7.N.l.d.b , t & . . . . . . . . ",
"* o . . * . . . @ q c.l.b.N.8X%Xb.m.%.a.K.Q.m.m.m.t.E f l ;.;.0 +.%.+.+.* % 2 w =.7 i.y.x * * b k.+Xb c 5 o =.n = X . * . . . * ",
". . . . X . . % 0 m k.j.j.l.4Xx.t.9.W *.A.A.y.j.l.6.k f f d q o t t y d O o . 4 X.5 X.K . . . c r.1.X . - w 6. .0 O . . . . . . ",
"* * + * * * = 6 @.v.N.l.n.N.Q f E E E f E W ~ g..Xa.E Q E Y y = * * 0 f l 6 * * * * * * # * * b J * * + X.N._ s.*.l = * * + * * ",
". . . . . . q m a.d./ l l W f d h k f s k h W y.g.=.d h d d d y o . o O y 4 . . . . . . . . . o + . o 8 g W e.u.y.=.t + . . . . ",
"* * * * = q 3.a.N.m.! E E E Q Y E E Q Y E W s.N.3.} 6 6 E E E E y 4 + * 6 = * * * * * * . * * * * * y h %.a.A A A S h = * * * * ",
"# . . . = y t.k.d.6.W k f k Y f k k f f (  .l.`...y : o q q t t d 4 . . . . . . . . . . . . . . . % k y G >.o . 7 v / 0 o . . . ",
"* * + $ 4 g s.m.p.! E Y Y E Q E Q E E f p.b.+X7X:.f h 4 * . * o h 6 % * * * * * * * * * . * * * . * k 6 * * * = 1.N.s.| , * * * ",
"o . . & ( t.l.y.W f W k k k E &.*.{ E k t.j.E } W k k k @ o * . % + . . * . . * * . . . . * * . . * * o . + = >.l.l.7.7 y q o * ",
"* * * 5 k.b.3.+.E E { E W W ~ 3.1X4X! f O.#.E W E Y W E y 6 * * * * * * * * * * * * * * * * * * $ * = * * + j a.}.j.F >.W f q * ",
". . O w c.`.} d f (  ./ G z.f W z.-Xh s d d s d d s s s d < o 2   . . . . .   . . . . . . . . .   . . . O > h G H D 4 1. ./ q o ",
"* * u O.$X6X:.Y _ v.|.t.x.wXQ f E E R ^ ! W E W f d E E k 0 6 h % % . * * * . * * * * * * * * * . * * % q f y 4 * * V _.N.8.y = ",
"o o X.d.g./ k k ( a.l.6.k l E f k k ^ V.' g f k 2 : h h % . . . . . . . . . . . . . . . . . . . . % . . . * . . o 7 _.9X_.4.t & ",
"y y 4.b.M.O.E Y _ g.}.g.2.E R +.@.T D.U.U.C.E E d q 6 6 * # * * * $ . * * * . * * * . * . * * * . * * . . * o + K r.B.&XN.t.k y ",
"d d &.r.y.l d d W 6.i.=.W d f  .6.$.(.S.Z.' s d d e 8 0   . . . . . . . . . . . . .   . ; U *XZ . . . . .   0 b <.1.b r.y.e. .f ",
"{ E t.}.N.O.W E *.n.b.5.W W @.3.|.{. XF.] l E W -...E E 4 * * * * * * * * * N B B B * - P eXuX:X; * * + * * l 7.j.1.A l.m.N.a.{ ",
"E E 8.b.N.O.E _ }.b.! k Y E $Xl.b.b.n.( E k Y W 6X;XE E Y q * * * * . * * - :XuXuXtXN L eXuXuXtX=XN * . * * + * * w m.+Xm.m.p.! ",
"! 2.g.b.m.O.E _ m.b.! f Y W yX1X8.+.O.W Y k Y E :.-.Y E Y d q + * * . * ; *XqXuXuXtXN L eXuXuXrX0X,X* . * * $ * q m b.}.b.m.a.! ",
"W 6.k.j.k.( f T | ( y.&.k l z...W k k f k k k f f d k f f h t o . . . * >XqXqXeX0XP * Z qXeXeXqXqXtX* . . o t t h f +.k.g.g.r.W ",
"{ a.+X|.N.@.Q E E Q |.t.E ! ! E E E l h M M l j E Y ! ~ _ W u 4 * * * ; qXqX0XqX,XB * Z 0XqXqXqX0XrX* * + * h h h l O.N.%X@Xa.! ",
"E 5.l.k.m.l.| f f f h.6.W k Y d h h % . . . . * t y / a.l.J w h o . . . . . . . * . . . . . . . . * * . . * . . # & l j.6X3X8.E ",
"E 8.l.h.N.g.( f Y f l.d.%.W E q = = * . . . . . = O 0 / l.y.$.k o . . . . . . . . . . . . . * . . * * . . * . . # * x d._.+X8.E ",
"/ A.].).K.).F.A.k k / &.6.l O o . . # . . . . . . . % O l $.e.l o . . . . . . . . . . . . . . . . * . . . . . . w a t 7 r.k.7.W ",
"W A.]./.R.].F.A.f f k  .$.a % . . . . . . . . . # . . . y o.$.l o . . . . . . . . . . . . . . . . . . . . . . . t f d 7 e.k.e.E ",
"E 9.H.R.L.T.].f.! f l d 9 o * . . . . . . . . . . . . . # . 6 h 2 % . . . . . . . . . . . . . . . * * . * 4 & o t f ( g.k.g.t.E ",
"W A.R.Y.E.Y.U.F.8.W l t o X * . . . . . . . . . . . # . o . 6 f h 4 . $ . . . . . . . . . . . . . * * . 0 d y O t f | k.k.l.t.W ",
"! w.Q.!.I.P.OX Xv.! 4 = * * * * * * * * * * * * * * * * * * * 4 k 0 * * * * * = * * * * . * * * * * * * q Q E f 6 6 O.m.N.N.q.! ",
"W 0.oXH.E.G.]./.a.T o . . . * . . . * . . . # . . . . . . . . o h 9 O . . . . . . . . . . . . . . * . . 0 f f f 0 8 +.k.g.k.t.W ",
"! A.[.{.Q.{.J.J.a.j * . * * * # * * * . * . * * * . + * * . * * y / p * * * . * * . . * . * * * o * * . w E T E k | m.}.%X%Xa.! ",
"! 9.}.b. Xm.{.}.r.5 * . * * * . * * * . * . * * * . * * * * * * = X.H % % * . * * * . * . * * * . * * . q W W E l | m.+X9X5Xa.! ",
"! ! q.m..XN.|.N.i.5 * * * * * . * * qX<XL - qXqXC . * * * * * * = a W h * * * * * * * * . * * * + * h h k E E Y E ) K.XX%X@X7.7 ",
"1 r &.y.d.y.y.y.>.@ . . . . . N L L 0X,XZ * <X<XU Z C * . . . . . 8 s s : o . . . . . .   . . o : > d d d s d s d n S.f.y.e.G % ",
"* y 5.b.|.m.m.m.r.5 * . N L P =XtXtXuXeXP - uXtXuXeX0XI L B * * + t E Y k w 4 4 * * . * + 4 x n +.@.E Y -.x.W Y ` [ T.OX[.w.y = ",
"+ t =.d.m.k.k.g.<.= . . L 0XeX<XqXqXeX0XL * eXqXeXqXqXqXqXU . . o q d f k h d y . . . . & h j.j.d.l.f f -XwXg f A.W.U.R.W.Z.t o ",
"= y 5.m..XN.N.s.g = * * P tXpXeXuXuXiXeXI - uXuXuXrXuXuXuX*X* * * t Y Q n.v.g.y.* * * * 4 f +XN.m.#XQ Y | #.E Y w. X[.!.[.q.y = ",
". O j  .j.u.a.4.r o .   N P qX,X<X0X<XU N . U ,XqX,X0X0XI B . .   0 d h c c x x   . . . o > A c D  .h d d d d d =.u.f.G.` n : . ",
"* * t | #XN.N.v./ = * * * * ,X:X>X>X>XB * * N =X>X:X>X>X; * * * 6 y h u * * * * * * * * * * * * 4 a a f W Q E E a.+X X~.) t * * ",
"* o 0 m m.l.b.l.7.5 o . . . ; * * * - . * . * * * * * * * . . o h k 0 % * . . * * . . . . + % # . * = q l E l W y.l.l.b.m q . * ",
"* * * 4 O.a.N.m.m.d.= * * * * . * * * . * * * * * . * * * # + o k 0 * * * * . * * * * * % * * * . * * t 3.v.B.6X1Xm.s.+.4 * * * ",
". . . O l ( ;X2Xl.d.>.F . # * . . . . . . . . . o . . . . . 4 q h 4 . . o . . . . . . . . . * . . * o q =.b.l.`.c.k.y.W & . . o ",
"* * * & a k 2X3XN.N.+Xr.z = * . * * * . * * * * * * * + * @ t E Y 0 * * * * * * * * * * * * * * . * * 0 ,..XN.N.+Xm.3.j = * * * ",
". . . . & q =.u.g.d.k.u.o.5 . . . . . . . . . . . . o o = q W W d 4 . . . . . . . . . . . . . . . . .   H a.d.d.j.y.y = . . . . ",
"* * * * * = j +.|.N.|.N.N.l.* $ * * * * * * * * * * 4 h g.g.m.b.T 0 * * * * + * * * * * * * * * * * * . p ! N.N.}.g.h 4 * * * * ",
". . . . o . O 0 &.a.l.j.d.l.1.x . . . . . . . . . O m 6.j.d.k.j., o . . . . . . . . . . . . . . . * . . 0 g j.j.$.m O % . . . . ",
"* . # . * . . = j 2.m.c.m.B.>.x * * * . * . . . * O v X.l.l.N.l.+ . . * . . . * * . . . . * * . . * 6 6 m %.l.p.( h o * . X . * ",
". . . . . . . . & t y.y.k.l.+   . . . . . . . . . . o o i.d.d.t.o . . . . . . . . . . . . . . . o 4 k l 4.l.6.W y q . o . . . . ",
"* * * * * * * * * = } %.N.+X* . * * * . * * * * * * * * l.N.a.| * * + * * * * * * * * * * * * * 6 W ! 5.N.#X( E 6 * * * * * * * ",
". . . . * . . . . # = 0 W | h 6 % . . . * . # . . . . . W *.8.l % . . . . . . . . . . . . . % 3 y Y a.a.%.( d 6 * . . * . . . * ",
"* . . . * * . . * . * & u l R t : + * . * . * . * . * * q o.7.p * % . * * * . * * . . * . * 0 t } 2.t.3.m q 0 O * * . * . . . * ",
"* . . . * . . . . . . . 4 t y y q 4 4 o . . . . . . * . . D X.= . . . . * . . . . . . . o 4  . .&.y.l y 2 . # . . . . * . . . * ",
"* * * * * * * * * * * * * * = q W l f > * % * * * * * * * K >.= * * * * * * * * * * o * 2 k +XN.4.O.E 0 * * * * * * * * * * * * ",
". . . . * . . . . . . . . . * . O O f y h u o . * . . . . 0 t o . . . . . . . * O t y d d f l l q = & . . . . . . . . . . . . . ",
"* . . . * . . . . . . . . . * . # o 0 8 h h q 0 q 2 . . . 0 t o . . . . * 6 8 0 q h f E d q 0 0 4 * * . . * . . . . . * . . . * ",
"* . . . * . . . . . * . # o * . . + + . 0 q t t k y 6 6 6 t y 6 6 6 4 6 6 d k l k t t t 0 % * o . * * . . * . . . . . * . . . * ",
"* * . . * . . . * X * . . * * . X * * . % + % % y f f k k k f f k k h f g f f l h 4 o o . * * . . * * . # * . . . . . * . . . * "
};
