/* XPM */
static char *_3cfb7f5add54bd1ccc11a3758744b102C1b2vz4VDdEc5Nf[] = {
/* columns rows colors chars-per-pixel */
"64 64 211 2 ",
"   c #010101",
".  c #060901",
"X  c #0A0D02",
"o  c #040609",
"O  c #06090D",
"+  c #080B0F",
"@  c #0E1203",
"#  c #111503",
"$  c #151B05",
"%  c #181F05",
"&  c #0A0D13",
"*  c #0B1017",
"=  c #0E131B",
"-  c #10161F",
";  c #1B2306",
":  c #1F2808",
">  c #212A07",
",  c #232D08",
"<  c #263109",
"1  c #293509",
"2  c #2E3B0A",
"3  c #313E0B",
"4  c #111721",
"5  c #131A24",
"6  c #161D2A",
"7  c #17202D",
"8  c #18212E",
"9  c #1C2534",
"0  c #1E2838",
"q  c #34420C",
"w  c #38470C",
"e  c #3B4B0D",
"r  c #3F500E",
"t  c #2D663E",
"y  c #42540F",
"u  c #455710",
"i  c #455810",
"p  c #4A5D11",
"a  c #4D6212",
"s  c #516612",
"d  c #546A13",
"f  c #586F14",
"g  c #5C7415",
"h  c #5F7816",
"j  c #617B16",
"k  c #627E19",
"l  c #42783B",
"z  c #2E754D",
"x  c #3C7B45",
"c  c #367948",
"v  c #337A4C",
"b  c #2A7755",
"n  c #297B5B",
"m  c #347F52",
"M  c #0C6767",
"N  c #136C65",
"B  c #177669",
"V  c #1D7D6B",
"C  c #006978",
"Z  c #0A767A",
"A  c #167C73",
"S  c #237C63",
"D  c #668017",
"F  c #698317",
"G  c #6A8618",
"H  c #6E8B1A",
"J  c #708E1A",
"K  c #74931B",
"L  c #78971B",
"P  c #7B9C1C",
"I  c #7EA11E",
"U  c #4E863B",
"Y  c #558A36",
"T  c #57943F",
"R  c #5B953C",
"E  c #5D993D",
"W  c #608F2F",
"Q  c #6B9A2F",
"!  c #759E27",
"~  c #659833",
"^  c #6B9D31",
"/  c #649C39",
"(  c #7DA424",
")  c #72A12E",
"_  c #78A72E",
"`  c #7BAA2D",
"'  c #6DA134",
"]  c #66A13C",
"[  c #6CA63A",
"{  c #6EAA3E",
"}  c #73A532",
"|  c #76AC36",
" . c #7EB335",
".. c #75B13D",
"X. c #7AB43A",
"o. c #3E8148",
"O. c #3E8C55",
"+. c #35885A",
"@. c #3E935D",
"#. c #1B8374",
"$. c #13837D",
"%. c #1B887A",
"&. c #1F907E",
"*. c #268165",
"=. c #24846B",
"-. c #27876A",
";. c #2C8D6C",
":. c #369164",
">. c #3B9563",
",. c #339369",
"<. c #30906B",
"1. c #228C75",
"2. c #208D7A",
"3. c #24937B",
"4. c #2A9678",
"5. c #428345",
"6. c #4D8D44",
"7. c #458949",
"8. c #518F41",
"9. c #4C944B",
"0. c #549343",
"q. c #5A9C45",
"w. c #549949",
"e. c #499552",
"r. c #40945B",
"t. c #459658",
"y. c #619E40",
"u. c #5EA145",
"i. c #5BA34B",
"p. c #4DA15A",
"a. c #54A354",
"s. c #5BA750",
"d. c #65A846",
"f. c #66AA47",
"g. c #6EB347",
"h. c #72B040",
"j. c #82A41E",
"k. c #87A91E",
"l. c #8AAE1F",
"z. c #8EB21F",
"x. c #84AB23",
"c. c #89AE22",
"v. c #80AC29",
"b. c #8CB323",
"n. c #85B32B",
"m. c #89B629",
"M. c #8AB629",
"N. c #8BBA2C",
"B. c #95BB22",
"V. c #94BC23",
"C. c #91BE29",
"Z. c #82B632",
"A. c #83B834",
"S. c #88BD33",
"D. c #96C126",
"F. c #9BC424",
"G. c #9EC926",
"H. c #93C32C",
"J. c #99C62A",
"K. c #9BCA2C",
"L. c #9ED02F",
"P. c #8DC232",
"I. c #94C831",
"U. c #99CD31",
"Y. c #9CD031",
"T. c #A2CB25",
"R. c #A0CE2A",
"E. c #A6D126",
"W. c #A3D22A",
"Q. c #AAD728",
"!. c #AEDB28",
"~. c #B1DE28",
"^. c #B3E028",
"/. c #027A88",
"(. c #0C8486",
"). c #06808A",
"_. c #0B858A",
"`. c #0D8B8D",
"'. c #118683",
"]. c #128986",
"[. c #128E8B",
"{. c #1B9689",
"}. c #028493",
"|. c #038997",
" X c #098B93",
".X c #028D9E",
"XX c #0E9395",
"oX c #0B959B",
"OX c #0B959D",
"+X c #129594",
"@X c #179C95",
"#X c #129B9A",
"$X c #229581",
"%X c #1CA195",
"&X c #008EA1",
"*X c #0393A5",
"=X c #0A9CA4",
"-X c #089CA6",
";X c #0096AA",
":X c #019AAE",
">X c #019DB2",
",X c #06A0AF",
"<X c #0AA2AC",
"1X c #03A3B5",
"2X c #08ABB7",
"3X c #00A5BB",
"4X c #03AABD",
"5X c #00ADC3",
"6X c #00B0C7",
"7X c #00B4CC",
"8X c #00B5CD",
/* pixels */
"0 0 0 0 0 0 0 0 0 0 0 0 0 0 0 0 0 0 0 0 0 0 0 0 0 0 0 0 0 0 0 0 0 0 0 0 0 0 0 0 0 0 0 0 0 0 0 0 0 0 0 0 0 0 0 0 0 0 0 0 0 0 0 0 ",
"0 0 0 0 0 0 0 0 0 0 0 0 0 0 0 0 0 0 0 0 0 0 0 0 0 0 0 0 0 0 0 0 0 0 0 0 0 0 0 0 0 0 0 0 0 0 0 0 0 0 0 0 0 0 0 0 0 0 0 0 0 0 0 0 ",
"0 0 0 0 0 0 0 0 0 0 0 0 0 0 0 0 0 0 0 0 0 0 0 0 0 0 0 0 0 0 0 0 0 0 0 0 0 0 0 0 0 0 0 0 0 0 0 0 0 0 0 0 0 0 0 0 0 0 0 0 0 0 0 0 ",
"0 0 0 0 0 0 0 0 0 0 0 0 0 0 0 0 0 0 0 0 0 0 0 0 0 0 0 0 0 0 0 0 0 0 0 0 0 0 0 0 0 0 0 0 0 0 0 0 0 0 0 0 0 0 0 0 0 0 0 0 0 0 0 0 ",
"0 0 0 0 0 0 0 0 0 0 0 0 0 0 0 0 0 0 0 0 0 0 0 0 0 0 0 0 0 0 0 0 0 0 0 0 0 0 0 0 0 0 0 0 0 0 0 0 0 0 0 0 0 0 0 0 0 0 0 0 0 0 0 0 ",
"0 0 0 0 0 0 0 0 0 0 0 0 0 0 0 0 0 0 0 0 0 0 0 0 0 0 0 0 0 0 0 0 0 0 0 0 0 0 0 0 0 0 0 0 0 0 0 0 0 0 0 0 0 0 0 0 0 0 0 0 0 0 0 0 ",
"0 0 0 0 0 0 0 0 0 0 0 0 0 9 9 9 0 0 0 0 0 0 0 0 0 0 0 0 0 0 0 0 0 0 0 0 0 0 0 0 0 0 0 0 0 0 0 0 0 0 0 0 0 0 0 0 0 0 0 0 0 0 0 0 ",
"0 0 0 0 0 0 0 0 0 0 0 6 & o o o O - 9 0 0 0 0 0 0 0 0 0 0 0 0 0 0 0 0 0 0 0 0 0 0 0 0 0 0 0 0 0 0 0 0 0 0 0 0 0 0 0 0 0 0 0 0 0 ",
"0 0 0 0 0 0 0 9 9 9 =               o 5 9 9 9 0 0 0 0 0 0 0 0 0 0 0 0 0 0 0 0 0 0 0 0 0 0 0 0 0 0 0 0 0 0 0 0 0 0 0 0 0 0 0 0 0 ",
"0 0 0 0 9 9 5 4 4 &     ; e i y 3 @     o = 4 6 0 0 0 0 0 0 0 0 0 0 0 0 0 0 0 0 0 0 0 0 0 0 0 0 0 0 0 0 0 0 0 0 0 0 0 0 0 0 0 0 ",
"0 0 0 9 4 O           w k.n.) _ b.K q .       o 4 9 0 0 0 0 0 0 0 0 0 0 0 0 0 0 0 0 0 0 0 0 0 0 0 0 0 0 0 0 0 0 0 0 0 0 0 0 0 0 ",
"0 9 = o           . d T.R `.2X<XA ' T.P , : .     O 5 9 0 0 0 0 0 0 0 0 0 0 0 0 0 0 0 0 0 0 0 0 0 0 0 0 0 0 0 0 0 0 0 0 0 0 0 0 ",
"9 &       : H W.W.V.K.c >X7X7X7X7X;XS S.W.W.K @ .     4 9 0 0 0 0 0 0 0 0 0 0 0 0 0 0 0 0 0 0 0 0 0 0 0 0 0 0 0 0 0 0 0 0 0 0 0 ",
"4   . q d c...>.>.p.2.3X7X7X7X7X7X7X5X}.-.+.H.G d >     6 0 0 0 0 0 0 0 0 0 0 0 0 0 0 0 0 0 0 0 0 0 0 0 0 0 0 0 0 0 0 0 0 0 0 0 ",
"O   w D.) q.XX5X5X3X7X7X7X7X7X7X7X7X7X7X7X-X0.E } j.>   o = - 6 0 0 0 0 0 0 0 0 0 0 0 0 0 0 0 0 0 9 9 9 0 0 0 0 0 0 0 0 0 0 0 0 ",
"    G Q -X,X7X7X7X7X7X7X7X7X7X7X7X7X7X7X7X6X1X4X#X} s           & 9 0 0 0 0 0 0 0 0 0 0 0 0 9 5 * o   o * 9 0 0 0 0 0 0 0 0 0 0 ",
"    G Q >X7X7X7X7X7X7X7X7X5X5X5X5X7X7X7X7X7X7X7X4Xu.h . . # @     = 9 0 0 0 0 0 0 0 0 0 9 9 &             O 9 9 0 0 0 0 0 0 0 0 ",
"O   w F.+.1X7X7X7X7X7X7X:X<.r.:.;.4X7X7X7X7X7X7X4Xq.j % G ( P ,   o 6 9 0 0 0 0 0 0 0 0 9 =     < w s w .   = 9 0 0 0 0 0 0 0 0 ",
"4   . g I.[.7X7X7X-X'.$.w.V.j.b.P.A (.;X7X7X7X7X4X9.c.L  .;.g.J .   & 9 0 0 0 0 0 0 0 0 9 o   p b.n.' C.w   + 9 0 0 0 0 9 9 9 0 ",
"9 O   q W.].7X7X5X,.H.W.F.w @ % V.W.L.v 7X7X7X7X7X+XZ.~.0.:X@.J.h     9 0 0 0 0 0 0 0 0 6   . V.o.'. XT J   o 9 0 9 4 O     o 6 ",
"9 O   h P..X7X7X5X4.K.g X       @ s V.5.5X7X7X7X7X*X..^.[ *X>Xc F.    9 0 0 0 0 0 0 0 0 6   . F.n 7X4X8.K   o 9 8 O             ",
"9 o   K X.:X7X7X7X-XX.a     O     . f N.-.4X7X7X7X#XZ.~.S 7X5X6.l.    9 0 0 0 0 0 0 0 0 9     B.5.7X*X .d   o =     . 2 s s ;   ",
"9 O   s I.`.7X7X7X-XX.s     4 6 &   @ B.[ .X7X7X7X@Xn.!.C 7X>X{ k   o 9 0 0 0 9 8 6 8 9 9     x.6.7X$.W.:         ; D x./ [ k . ",
"9 *   @ F.d.*X7X7X:Xu.F.#   * 9 7     D.T 1X7X7X7X#XZ.~.[ '.}.S.a   & 9 0 9 = o       o o     V.o.7X).L.,       % l.' #. X6.H X ",
"0 6     1 F.O.5X7X7X(.H.g   O 9 8     j K._.7X7X7X{.N.e b.N._ E.%   O 9 8 O     . .         @ G.S 7X.XU.e     1 B.d.oX*XY V.q   ",
"0 9 =   . j E 4X7X7X.XA.H     6 *   X G S. X7X7X1Xw.j.@ d Q.J.C.g .   5 O   X q g H a e y 1 3 F./.7X:X] H : a V.w.oX>X0.B.1     ",
"0 0 5   . H 9.5X7X7X*X/ V.>   &     a J.*.3X7X7XoX` y ; G.7.4.b T.%   o   X g M.0.e.' ) ~ v.j.^ :X7X>X] V.( [ r.:X*Xr.J.3     = ",
"0 0 4   X L @.5X7X7X7X XM.a       # j.5.5X7X7X7X].c.3 : W.$.6XM R.,       q v.V 4X4X-X<X<XT ~.x 7X7X`.U.E.O.-X5X`.[ D.e     - 9 ",
"0 0 6   . F q.4X7X7X7X:Xn.h     . 1 b.B 7X7X7X:XW k.; @ W.%.7X.Xn.y   X H R.E 2X7X1XoX].b N.W.A 7X7X_.E B 1X7X5XU j.;     & 9 0 ",
"0 0 9 o   a } <X7X7X7X1X9.b.1 > f j.v.`.7X7X7X/.F.u   1 L.(.7X&XM.y   F Z.1.*X7X3Xx n.! j.K v.`.7X7X;X;X7X7X7X(.M.e     & 8 0 0 ",
"0 0 9 o   y ` -X7X7X7X7XB R.k.b._ r.$X4X7X7X5X+.T.;   # F.@.3XZ F., . D.+.5X7X6X].| j , : d / 1X7X7X7X7X7X4X].[ l.@   = 9 0 0 8 ",
"0 0 0 O   w M.(.7X7X7X7Xt x / Y OX5X7X7X5X}.S K.k       F.t.5X*.F.X < T.Z 7X4XB Z.G #   X J >.3XM 3X7X7XZ 6.H.x.%   o 9 0 0 0 = ",
"0 0 0 =   % j.~ :X7X7X7X&X6X;X;X7X7X7X5XS N.R.P .     2 L.(.7XZ J.j D ^ :X5X*.J.H .     @ ! >.b 8.3X7X>X) D.u .     4 9 0 0 0 O ",
"0 0 0 8     p G./.7X7X7X7X7X7X7X7X7X3X1.v.P 3 .       w U._.7X3X*.c.V.x 7X>Xi.F..       . s ` R.b 7X7X4X7.P $     = 9 0 0 0 0 o ",
"0 0 0 0 &   e F./.7X7X7X7X7X7X7X7X7X;Xb N.J X         X b.t.3X7XV G.J.#.7X5X%.W.>         @ u E.N 7X7X7XoX) s .   O 4 9 0 0 0 O ",
"0 0 0 0 =   ; T.m 7X7X7X7X7X7X7X7X7X7X5X-.F.K $         d g.>X;X} !.0.1X7X7X#.W.$           p M.}.7X7X7X5X;.M.>       4 0 0 9 o ",
"0 0 0 0 8     I { :X7X7X6X-X1X7X7X7X7X7X1X6.H.j.q @     h i.>X*X_ J.;..X7X:Xd.Q.b.G.I 2 k G j.~ 4X7X5X4X7X>Xw.D.G :     9 9 4   ",
"0 0 0 0 9 O   s U.}.7X7X<XY r.*X>X5X7X7X7X*X-. .N.j.<   g i.>X7Xo.E.U .X7X#X~ a.>.:.i.N.[ ..!.C.}.1X1.Y |.7XOX,.d.P $   - 9 &   ",
"0 0 0 0 9 O   a Y.}.7X7X1X/ K.h.d.4.5X7X7X7X1X#X{.] P X y g.;X7X5.^.0.4X7X4X#X1X5X5X>X%X.Xr.!.M.&X@X_ R.q.*X7X7X`.! 2   O 6 O   ",
"0 0 0 0 9     P | ;X7X7X5X>.F.P b. .+X7X7X7X7X7X7X{.N.q 2 Z.+X*X_ E.} z A 6X7X7X7X6X&X/.Z ` R.~ 3X4.( 2 J.;.5X7X2X^ s     = o   ",
"0 0 0 0 9     B.E 3X7X7X5Xr.P X # b.9.z z -X5X7X7X:Xi.F.e ( 3.B R.y j.Q.0.3X7X3X$.*._ F.T.K j.l 5X,.H X j d.:X7X5X;.x.$   + O   ",
"0 0 0 0 9 o   p J.1.5X7X5X>.x.@   y c.V.V.^ &.7X7X7XXXq.E.M.3.S F.@   h  .+X5X*.C.x.j w 2 : I *.5Xe.j . 2  .#X7X7X-XX.q   O O   ",
"0 0 0 0 9 =   . j.s.1X7X7X4.M.$   . , 1 q L q.4X7X7X7X*X_ H.$XV T.%   # b.>.}. .D > .     3 ( XX-X' y   # x.@.4X7X>Xd.d   O &   ",
"0 0 0 0 9 4     b.s.>X7X5X:.c.#           r M.N b '.7X7Xv E.O.c F..     k y.o.G.#         y ~ 2XA c.>     y C.A 7X3Xa.J   o =   ",
"0 0 0 0 9 =   @ W.;.7X7X2X~ k .   * * o   $ L E.E.d.:X7X_.| R.E.a       > D.T.y     4 o   y ^ OXU K .     . J Y 5X5X,.C.    4 = ",
"0 0 0 0 9 =   $ W.-.7X7X4Xw.I #   & 9 7 o   # q a N.3.1X5X X{ b.:         $ %     & 9 &   , x.7.V.e   o o   y M.(.7X'.K.1   & 9 ",
"0 0 0 0 9 4     V.a.1X7X7X{.A.y   O 8 0 5 o     X H A.a.|.5X2.` l.e             & 9 0 6   . y J s .   4 -   @ k.q.:X:X[ H     9 ",
"0 0 0 0 0 6 o   y Z.@X7X7X*Xh.h   o 8 0 9 9 4     # d E.7.3X5XXX5.b.<   o 4 4 8 9 0 0 9 &     X .   O 9 9 o   < K.].7Xn F.@   5 ",
"0 0 0 0 0 9 &   # b.O.5X7X@XN.3   O 9 0 0 0 0 5       f K.#.5X7X-X` y     6 9 0 0 0 0 0 9 &       + 8 0 9 4     F.,.}.C R.<   = ",
"0 0 0 0 0 0 5   . g Q 2X7X@XN.3   O 8 0 0 0 0 0 6 O   X L n.>.1X4XR K #   O 8 0 0 0 0 0 0 9 6 5 6 9 0 0 0 6 o   H a.M v T.>   = ",
"0 0 0 0 0 0 9     p ^ 2X7X:Xd.K   o 6 0 0 0 0 0 9 6 o   $ h C.$.6X3.A.H     = 9 0 0 0 0 0 0 0 0 0 0 0 0 0 8 o   s X.E b.a .   6 ",
"0 0 0 0 0 0 9 o   a ) OX7X:Xd.P   o 6 0 0 0 0 0 0 9 5     : z.b 7X5X-.R.w   o 9 0 0 0 0 0 0 0 0 0 0 0 0 0 9 &   $ j.B.q     & 9 ",
"0 0 0 0 0 0 0 o   1 D.Y :X;.D.q   O 8 0 0 0 0 0 0 0 0 6   . H _ .X7X:X] b..   6 0 0 0 0 0 0 0 0 0 0 0 0 0 0 4             O 8 0 ",
"0 0 0 0 0 0 0 4     h n..Xe.P X   = 9 0 0 0 0 0 0 0 0 9 O   , V.0.>X7XB R.2   = 0 0 0 0 0 0 0 0 0 0 0 0 0 0 9 = o     o & 9 0 0 ",
"0 0 0 0 0 0 0 9 o   p D.Z r.L X   5 0 0 0 0 0 0 0 0 0 0 6     y W.+.*X}.N.a   O 0 0 0 0 0 0 0 0 0 0 0 0 0 0 0 9 8 5 5 6 9 0 0 0 ",
"0 0 0 0 0 0 0 0 =   ; F. .Z.h .   6 0 0 0 0 0 0 0 0 0 0 9 =     h E.T }._ h   o 0 0 0 0 0 0 0 0 0 0 0 0 0 0 0 0 0 0 0 0 0 0 0 0 ",
"0 0 0 0 0 0 0 0 6     1 l.K ;   o 9 0 0 0 0 0 0 0 0 0 0 0 8 O     w V.z ) G     0 0 0 0 0 0 0 0 0 0 0 0 0 0 0 0 0 0 0 0 0 0 0 0 ",
"0 0 0 0 0 0 0 0 9 =             5 0 0 0 0 0 0 0 0 0 0 0 0 0 6 O   . s b.l.q   O 0 0 0 0 0 0 0 0 0 0 0 0 0 0 0 0 0 0 0 0 0 0 0 0 ",
"0 0 0 0 0 0 0 0 0 9 - O     & 5 9 0 0 0 0 0 0 0 0 0 0 0 0 0 0 8 &   . < >     4 0 0 0 0 0 0 0 0 0 0 0 0 0 0 0 0 0 0 0 0 0 0 0 0 ",
"0 0 0 0 0 0 0 0 0 0 9 9 9 9 9 9 0 0 0 0 0 0 0 0 0 0 0 0 0 0 0 0 9 +         = 9 0 0 0 0 0 0 0 0 0 0 0 0 0 0 0 0 0 0 0 0 0 0 0 0 ",
"0 0 0 0 0 0 0 0 0 0 0 0 0 0 0 0 0 0 0 0 0 0 0 0 0 0 0 0 0 0 0 0 0 9 5 & = 6 9 0 0 0 0 0 0 0 0 0 0 0 0 0 0 0 0 0 0 0 0 0 0 0 0 0 ",
"0 0 0 0 0 0 0 0 0 0 0 0 0 0 0 0 0 0 0 0 0 0 0 0 0 0 0 0 0 0 0 0 0 0 0 0 0 0 0 0 0 0 0 0 0 0 0 0 0 0 0 0 0 0 0 0 0 0 0 0 0 0 0 0 ",
"0 0 0 0 0 0 0 0 0 0 0 0 0 0 0 0 0 0 0 0 0 0 0 0 0 0 0 0 0 0 0 0 0 0 0 0 0 0 0 0 0 0 0 0 0 0 0 0 0 0 0 0 0 0 0 0 0 0 0 0 0 0 0 0 ",
"0 0 0 0 0 0 0 0 0 0 0 0 0 0 0 0 0 0 0 0 0 0 0 0 0 0 0 0 0 0 0 0 0 0 0 0 0 0 0 0 0 0 0 0 0 0 0 0 0 0 0 0 0 0 0 0 0 0 0 0 0 0 0 0 "
};
