/* XPM */
static char *_c40dd4c2a554503b9fcf299a7ef8590NCza8tXIeWdt6HHK[] = {
/* columns rows colors chars-per-pixel */
"64 64 210 2 ",
"   c #010202",
".  c #070901",
"X  c #090C02",
"o  c #040609",
"O  c #06090D",
"+  c #080B0F",
"@  c #0E1203",
"#  c #111504",
"$  c #141A04",
"%  c #181F05",
"&  c #070B10",
"*  c #090D13",
"=  c #0C1017",
"-  c #0D121A",
";  c #10161F",
":  c #1C2306",
">  c #1F2809",
",  c #232C08",
"<  c #273109",
"1  c #2A3509",
"2  c #2E3A0A",
"3  c #313F0C",
"4  c #111720",
"5  c #131A25",
"6  c #161E2A",
"7  c #17202D",
"8  c #18212E",
"9  c #1C2535",
"0  c #1E2838",
"q  c #34420C",
"w  c #38470D",
"e  c #3C4C0E",
"r  c #3D5010",
"t  c #41520E",
"y  c #435611",
"u  c #455A12",
"i  c #4A5E11",
"p  c #4D6415",
"a  c #4E6818",
"s  c #506612",
"d  c #536B15",
"f  c #546E17",
"g  c #5C7515",
"h  c #587318",
"j  c #59751A",
"k  c #5E7C1B",
"l  c #627C16",
"z  c #597E24",
"x  c #176A5D",
"c  c #2E754D",
"v  c #137C76",
"b  c #237D63",
"n  c #698417",
"m  c #67851A",
"M  c #64841D",
"N  c #698619",
"B  c #6B8A1C",
"V  c #70901C",
"C  c #74941C",
"Z  c #79971B",
"A  c #7C9D1D",
"S  c #7EA01E",
"D  c #5C8528",
"F  c #4E8A3E",
"G  c #568B37",
"H  c #5D963B",
"J  c #5D9A3E",
"K  c #618321",
"L  c #668C25",
"P  c #6D9222",
"I  c #62912F",
"U  c #6B972B",
"Y  c #6E9A2A",
"T  c #729520",
"R  c #759B23",
"E  c #719E2B",
"W  c #629432",
"Q  c #669934",
"!  c #6C9D31",
"~  c #649D3A",
"^  c #7DA525",
"/  c #7FA825",
"(  c #79A428",
")  c #7EAD2C",
"_  c #6AA43A",
"`  c #6EA639",
"'  c #74A934",
"]  c #72AD3D",
"[  c #7EB536",
"{  c #76B03B",
"}  c #7BB63A",
"|  c #2D835E",
" . c #398755",
".. c #3B8D59",
"X. c #3F9157",
"o. c #3B905D",
"O. c #1E806C",
"+. c #1D8371",
"@. c #14827A",
"#. c #1A8578",
"$. c #1D8B7B",
"%. c #2A8867",
"&. c #24846B",
"*. c #328C64",
"=. c #369569",
"-. c #3C9E6B",
";. c #228A74",
":. c #2E9976",
">. c #25937A",
",. c #2C9A7A",
"<. c #339C73",
"1. c #319F7A",
"2. c #3EA16D",
"3. c #2FA07D",
"4. c #3AA475",
"5. c #32A27C",
"6. c #4C8D44",
"7. c #478B49",
"8. c #4B924C",
"9. c #539444",
"0. c #5B9C43",
"q. c #539B4B",
"w. c #438E51",
"e. c #479857",
"r. c #4B9953",
"t. c #42955A",
"y. c #449A5D",
"u. c #519D51",
"i. c #5CA44B",
"p. c #4DA35C",
"a. c #5BAB55",
"s. c #55A958",
"d. c #5FB156",
"f. c #63A544",
"g. c #6BAB41",
"h. c #6DB54A",
"j. c #6BB44C",
"k. c #63B152",
"l. c #419D64",
"z. c #46A364",
"x. c #47A566",
"c. c #52AF65",
"v. c #82A41E",
"b. c #86A91E",
"n. c #8BAE1F",
"m. c #8EB11F",
"M. c #84AC24",
"N. c #89AE21",
"B. c #81AE2A",
"V. c #8CB423",
"C. c #89B529",
"Z. c #8AB729",
"A. c #8BBA2C",
"S. c #92BA24",
"D. c #94BC24",
"F. c #8ABC30",
"G. c #83BD38",
"H. c #8EC02F",
"J. c #97C429",
"K. c #8CC234",
"L. c #86C039",
"P. c #8FC838",
"I. c #95CB34",
"U. c #9BCF32",
"Y. c #9CD232",
"T. c #A1CD27",
"R. c #A5D32A",
"E. c #087B83",
"W. c #027D8C",
"Q. c #0B868A",
"!. c #148A85",
"~. c #148B86",
"^. c #1B9486",
"/. c #15938D",
"(. c #028393",
"). c #0B8E93",
"_. c #038C9B",
"`. c #0E9295",
"'. c #05919E",
"]. c #0A939B",
"[. c #0D9A9D",
"{. c #119594",
"}. c #169C96",
"|. c #129B9A",
" X c #219A87",
".X c #299F83",
"XX c #19A29A",
"oX c #2BA487",
"OX c #27A990",
"+X c #008EA1",
"@X c #0292A3",
"#X c #069AA6",
"$X c #0D9DA2",
"%X c #089CA7",
"&X c #0097AA",
"*X c #039BAC",
"=X c #009DB2",
"-X c #0EA1A5",
";X c #07A1AE",
":X c #0BA5AD",
">X c #11A2A3",
",X c #03A2B4",
"<X c #0CACB5",
"1X c #00A5BA",
"2X c #03ABBE",
"3X c #08ABB8",
"4X c #01ADC3",
"5X c #00B0C7",
"6X c #00B4CC",
"7X c #00B5CD",
/* pixels */
"0 0 0 0 0 0 0 0 0 0 0 0 0 0 0 0 0 0 0 0 0 0 0 0 0 0 0 0 0 0 0 0 0 0 0 0 0 0 0 0 0 0 0 0 0 0 0 0 0 0 0 0 0 0 0 0 0 0 0 0 0 0 0 0 ",
"0 0 0 0 0 0 0 0 0 0 0 0 0 0 0 0 0 0 0 0 0 0 0 0 0 0 0 0 0 0 0 0 0 0 0 0 0 0 0 0 0 0 0 0 0 0 0 0 0 0 0 0 0 0 0 0 0 0 0 0 0 0 0 0 ",
"0 0 0 0 0 0 0 0 0 0 0 0 0 0 0 0 0 0 0 0 0 0 0 0 0 0 0 0 0 0 0 0 0 0 0 0 0 0 0 0 0 0 0 0 0 0 0 0 0 0 0 0 0 0 0 0 0 0 0 0 0 0 0 0 ",
"0 0 0 0 0 0 0 0 0 0 0 0 0 0 0 0 0 0 0 0 0 0 0 0 0 0 0 0 0 0 0 0 0 0 0 0 0 0 0 0 0 0 0 0 0 0 0 0 0 0 0 0 0 0 0 0 0 0 0 0 0 0 0 0 ",
"0 0 0 0 0 0 0 0 0 0 0 0 0 0 0 0 0 0 0 0 0 0 0 0 0 0 0 0 0 0 0 0 0 0 0 0 0 0 0 0 0 0 0 0 0 0 0 0 0 0 0 0 0 0 0 0 0 0 0 0 0 0 0 0 ",
"0 0 0 0 0 0 0 0 0 0 0 0 0 0 0 0 0 0 0 0 0 0 0 0 0 0 0 0 0 0 0 0 0 0 0 0 0 0 0 0 0 0 0 0 0 0 0 0 0 0 0 0 0 0 0 0 0 0 0 0 0 0 0 0 ",
"0 0 0 0 0 0 0 0 0 0 0 0 0 0 0 0 0 0 0 0 0 0 0 0 0 0 0 0 0 0 0 0 0 0 0 0 0 0 0 0 0 0 0 0 0 0 0 0 0 0 0 0 0 0 0 0 0 0 0 0 0 0 0 0 ",
"0 0 0 0 0 0 0 0 0 0 0 0 0 0 0 0 0 0 0 0 0 0 0 0 0 0 0 0 0 0 0 0 0 0 0 0 0 0 0 0 0 0 0 0 0 0 0 0 0 0 0 0 0 0 0 0 0 0 0 0 0 0 0 0 ",
"0 0 0 0 0 0 0 0 0 0 0 0 0 0 0 0 0 0 0 0 0 0 0 0 0 0 0 0 0 0 0 0 0 0 0 0 0 0 0 0 0 0 0 0 0 0 0 0 0 0 0 0 0 0 0 0 0 0 0 0 0 0 0 0 ",
"0 0 0 0 0 0 0 0 0 0 0 0 0 0 0 0 0 0 8 5 6 9 0 0 0 0 0 0 0 0 0 0 0 0 0 0 0 0 0 0 0 0 0 0 0 0 0 0 0 0 0 0 0 0 0 0 0 0 0 0 0 0 0 0 ",
"0 0 0 0 0 0 0 0 0 0 0 0 0 0 0 0 0 5 O   o * 8 0 0 0 0 0 0 0 0 0 0 0 0 0 0 0 0 0 0 0 0 0 0 0 0 0 0 0 0 0 0 0 0 0 0 0 0 0 0 0 0 0 ",
"0 0 0 0 0 0 0 0 0 0 0 0 0 0 0 0 8   X p 2   - 0 0 0 0 0 0 0 0 0 0 0 0 0 0 0 0 0 0 0 0 0 0 0 0 0 0 0 0 0 0 0 0 0 0 0 0 0 0 0 0 0 ",
"0 0 0 0 0 0 0 0 0 0 9 0 0 0 0 0 * . N 0.M.% + 9 0 0 0 0 0 0 0 0 0 0 0 0 0 0 0 0 0 0 0 0 0 0 0 0 0 0 0 0 0 0 0 0 0 0 0 0 0 0 0 0 ",
"0 0 0 0 0 0 0 0 6 * O * 6 0 0 -   w G ].E , O 9 0 0 0 0 0 0 0 0 0 0 0 0 0 0 0 0 0 0 0 0 0 0 0 0 0 0 0 0 0 0 0 0 0 0 0 0 0 0 0 0 ",
"0 0 0 0 0 0 0 6 o X ,   o 6 9 o @ U  X+.A   = 0 0 0 0 0 0 0 0 0 0 0 0 0 0 0 0 0 0 0 0 0 0 0 0 0 0 0 0 0 0 0 0 0 0 0 0 0 0 0 0 0 ",
"0 0 0 0 0 0 9 o . h / g   = 6   3 s.&Xg.e   5 0 0 0 0 0 0 0 0 0 0 0 0 0 0 0 0 0 0 0 0 0 0 0 0 0 0 0 0 0 0 0 0 0 0 0 0 0 0 0 0 0 ",
"0 0 0 0 0 0 -   3 f.&.(   * -   u x.~.C.  + 9 0 0 0 0 0 0 0 0 0 0 0 0 0 0 0 0 0 0 0 0 0 0 0 0 0 0 0 0 0 0 0 0 0 0 0 0 0 0 0 0 0 ",
"0 0 0 0 6 * o   R >.<.k   o o $ ( ^.<.k   - 0 0 0 0 0 0 0 0 0 0 0 0 0 0 0 0 0 0 0 0 0 0 0 0 0 6 6 6 0 0 0 0 0 0 0 0 0 0 0 0 0 0 ",
"0 0 0 6 o . # $ K.(.k.1   o   N t.2X-.p   ; 0 0 0 0 0 0 0 0 0 0 0 0 0 0 0 0 0 0 0 0 0 0 0 0 ; o   o - 0 0 0 0 0 0 0 0 0 0 0 0 0 ",
"0 0 0 &   d S.S.| $X~ #     < Y ,X6Xx.r   5 0 0 0 0 0 0 0 0 0 0 0 0 0 0 0 0 0 0 0 0 6 4 6 6 o X i :   5 0 0 0 0 0 0 0 0 0 0 0 0 ",
"0 0 8   % ` c G ,X-X~ %     s  .6X6X:.M   - 0 0 0 0 0 0 0 0 0 0 0 0 0 0 0 0 0 0 9 +       o   n ` T # o 0 0 0 0 0 0 0 0 0 0 0 0 ",
"0 0 5   3 a.+XE.6X2Xx.d     N ~.6X6X`.A.  * 9 0 0 0 0 0 0 0 9 6 6 9 0 0 0 0 0 0 * X q p 1     n  .9.w   6 0 0 0 0 0 0 0 0 0 0 0 ",
"0 0 4   y x.6X6X6X6X<.j   $ K -X6X6X*XL.# + 8 0 0 0 0 0 0 6 * o o * - - 5 7 0 6   2 ~ o.n.    d y.5.f . * 0 0 0 0 0 0 0 0 0 0 0 ",
"0 0 =   B ,.6X*X6X6X=.N   1 F 3X6X6X,X{ , o 8 0 9 5 ; 5 9 &   1 <           * o . h 1.+.n.  . N.&.XXW @ o 0 0 0 0 0 0 0 0 0 0 0 ",
"0 9 +   F.].2Xc =X6X'.Y.X k -.4X=X6X,X] < o 6 ;             t ' ) u d u q :     : g.Q.} q   : ^ *X,Xh.>   6 0 0 0 0 0 0 0 0 0 0 ",
"0 6 o 1 ] 1X].~ 1X6X=XL.u i.,X6Xx 1X4Xq.i   +   : u p y :   g +.o.K.z.p.s.! <   u z.#X[ <   @ V.+X5X2.k   & 9 0 0 0 0 0 9 8 0 0 ",
"0 4   N *.6X.XF.).6X4Xo.U.:.6X1XF *X6X@.v.    $ R y.5.e.P 1 N #.$.l.3X4X,Xu.t   P >.4X9.u     J.W.6X-X_ w   6 0 0 0 6 - + + = 9 ",
"0 -   D.(.6X.XR.f.1X6X&.Y.].6X*XA.z.2XW.D.  # b. .4X6X4X>.B A ~.@X@X^.*.@X<.j . I.'.&XK.%     S.W.6X6X%.V   5 0 0 -       #   + ",
"0 *   / &X6X`.U.^ l.4X&.Y.&X6X=XA.k.,X(.J.$ B 7.1X4X6X6X3XD V.~.6X}.G.*.4X%Xg.< P.=X].H.      v.~.6X6X>.C   4 9 *   # i A.A.q   ",
"0 -   D._.6X`.A.: j.=X;.I.=X6X@XA.-.6X*X' N e.2X,Xb ,X6X4Xe.T.~.4Xw.D.@.6X1Xk.C 0.4X<.M       g t.6X6X;.A   + o   3 Y p.b J w   ",
"0 ;   b.~.6X,.B # ~ -XQ.L.=X4X*.Y./.6X6X9.D.3.6X`.e.,X6X4Xs.A.:X6X XH [.=X:.I.D...1Xa.N.s <   : G.=X6X).M.$   : g W ,.Q.f.g @ o ",
"0 5   C ;.6X2.p X j oX+X~ 1X^.C.U._.6X6XQ h.;X2X7.A.=.4X:XL ^ ~.6X4X;XQ.] K.8./.,X4X).@.G E Z 2 Y.+X6X4X7.Z C M.6.].$.G.p X   6 ",
"9 *   N.(.4Xs.w   t y.1Xx 6Xx.u B.{.6X6XJ k.1X(.V.r t.4X-XD g U 4X,X'.} b.L o.{.3X6X4X4X4X%X%.H.R.=.1X6X).~ *.@X3X*.^ w   o 6 0 ",
";   y J 1X1Xk.,   q 8.4X2X6Xc.w k <.6X5X_ ) XX@X' P 4.5X5X<.V. .3Xv =X_._ h h M.c =X=.4.oXXX`.` N.a.1X6XW.#X6X XJ l :   & 6 0 0 ",
"o : L }.6X:Xf.#   2 6.3X6X1Xd.2 a =.6X].V.k oX4XXX] p.4X6XOXH.w.3Xb %X6X&.n   v.&.,Xh.j a ! { l B <.6X6X,X6X$X[ e @   - 9 0 0 0 ",
"  3 8.3X6X:Xf.#   < G ].6XXXI # d =.6X;.b.a OX6X6X`.Q.4X4Xy.N.G 3Xq.-.4X~.C @ V._.%Xg.% . # $ X I.'.6X6X4X~.g.h   O 6 0 0 0 0 0 ",
"  q e.4X6X$X_ #   . g C.(.5.a . w s.4X@XC.B 4.<X4X6X6X4X$.T N  .:XE M./.3X9.q n.@.-XQ #     # 3 I.@X6X%XF V.i   o 6 0 0 0 0 0 0 ",
"  < G 3X4Xt.d . o o   m.v 5.p   # _ |.6XD l M I <.%X>X:.P 2 e 6./.N e Q #X2.y m.E.XXW @   3 ! a.:.1X,X0.g @   + 5 0 0 0 0 0 0 0 ",
"* # D $X-XL %   6 5   p f.u.u     p y.4XG t @ 2 R ] Q k <   t 9.%.n   S $.4.t b.v oXh . # B ..=X6X$Xs.B X o 4 9 0 0 0 0 0 0 0 0 ",
"- # M |.|.B @ = 0 8 o . s k %     t y.4X;.N X   @ $ # X     # P / ,   n  .4.p Z &.4.u   A 8.%X6X~.` h @   4 0 0 0 0 0 0 0 0 0 0 ",
"+ : D <X<Xz : + 0 0 5 o       O   y 2.4X<Xz % o o o o + 5 ;           2 ] /.I n.O.l.t t _ =X6X_.C.t     ; 0 0 0 0 0 0 0 0 0 0 0 ",
"* $ D -X<XD : + 0 0 0 6 - - 5 6   q 9.;X|.M @ * 0 9 0 0 0 0 5 * * - o X C.%.{ R.(.e.e s _ 2X1Xr.l   + 6 0 0 0 0 0 0 0 0 0 0 0 0 ",
"= @ M |.^.m X - 0 0 0 0 0 0 0 0 + # B {.-XL : o 9 0 0 0 0 0 0 0 0 0 -   e L k C.).G f R :.1X-.R # o 6 0 0 0 0 0 0 0 0 0 0 0 0 0 ",
"- # M {.w.p   6 0 0 0 0 0 0 0 0 5   g 6.+Xy.y   5 0 0 0 0 0 0 0 0 0 9 o   X . V.x C.( $.4XXX! :   ; 0 0 0 0 0 0 0 0 0 0 0 0 0 0 ",
"- X M ^.U 2 o 9 0 0 0 0 0 0 0 0 9 o X A ..1.p   ; 0 0 0 0 0 0 0 0 0 0 0 = o   q R.J.=.4X3Xr.i   * 0 0 0 0 0 0 0 0 0 0 0 0 0 0 0 ",
"6   i D N . = 0 0 0 0 0 0 0 0 0 0 ;   l 8...j X * 0 0 0 0 0 0 0 0 0 0 0 6 + . 2 K -.2X*Xu.l %   8 0 0 0 0 0 0 0 0 0 0 0 0 0 0 0 ",
"9 + . , @ o 6 0 0 0 0 0 0 0 0 0 0 6 o : j R u   - 0 0 0 0 0 0 0 0 0 0 5 o @ d W 1.,X#Xq.B > .   8 0 0 0 0 0 0 0 0 0 0 0 0 0 0 0 ",
"0 8 = o & 6 0 0 0 0 0 0 0 0 0 0 0 0 =   X @ .   8 0 0 0 0 0 0 0 0 0 8 o . g 0.[.@.X.[ k X       9 0 0 0 0 0 0 0 0 0 0 0 0 0 0 0 ",
"0 0 0 0 0 0 0 0 0 0 0 0 0 0 0 0 0 0 0 5 * o + 6 0 0 0 0 0 0 0 0 0 0 -   u i.).6.V.l 1     o o 4 0 0 0 0 0 0 0 0 0 0 0 0 0 0 0 0 ",
"0 0 0 0 0 0 0 0 0 0 0 0 0 0 0 0 0 0 0 0 0 0 0 0 0 0 0 0 0 0 0 0 0 0 *   C t.i.l X   o + 5 9 0 0 0 0 0 0 0 0 0 0 0 0 0 0 0 0 0 0 ",
"0 0 0 0 0 0 0 0 0 0 0 0 0 0 0 0 0 0 0 0 0 0 0 0 0 0 0 0 0 0 0 0 0 0 -   w k i X   4 6 9 0 0 0 0 0 0 0 0 0 0 0 0 0 0 0 0 0 0 0 0 ",
"0 0 0 0 0 0 0 0 0 0 0 0 0 0 0 0 0 0 0 0 0 0 0 0 0 0 0 0 0 0 0 0 0 0 9 o   X   o 6 0 0 0 0 0 0 0 0 0 0 0 0 0 0 0 0 0 0 0 0 0 0 0 ",
"0 0 0 0 0 0 0 0 0 0 0 0 0 0 0 0 0 0 0 0 0 0 0 0 0 0 0 0 0 0 0 0 0 0 0 0 - * - 9 0 0 0 0 0 0 0 0 0 0 0 0 0 0 0 0 0 0 0 0 0 0 0 0 ",
"0 0 0 0 0 0 0 0 0 0 0 0 0 0 0 0 0 0 0 0 0 0 0 0 0 0 0 0 0 0 0 0 0 0 0 0 0 0 0 0 0 0 0 0 0 0 0 0 0 0 0 0 0 0 0 0 0 0 0 0 0 0 0 0 ",
"0 0 0 0 0 0 0 0 0 0 0 0 0 0 0 0 0 0 0 0 0 0 0 0 0 0 0 0 0 0 0 0 0 0 0 0 0 0 0 0 0 0 0 0 0 0 0 0 0 0 0 0 0 0 0 0 0 0 0 0 0 0 0 0 ",
"0 0 0 0 0 0 0 0 0 0 0 0 0 0 0 0 0 0 0 0 0 0 0 0 0 0 0 0 0 0 0 0 0 0 0 0 0 0 0 0 0 0 0 0 0 0 0 0 0 0 0 0 0 0 0 0 0 0 0 0 0 0 0 0 ",
"0 0 0 0 0 0 0 0 0 0 0 0 0 0 0 0 0 0 0 0 0 0 0 0 0 0 0 0 0 0 0 0 0 0 0 0 0 0 0 0 0 0 0 0 0 0 0 0 0 0 0 0 0 0 0 0 0 0 0 0 0 0 0 0 ",
"0 0 0 0 0 0 0 0 0 0 0 0 0 0 0 0 0 0 0 0 0 0 0 0 0 0 0 0 0 0 0 0 0 0 0 0 0 0 0 0 0 0 0 0 0 0 0 0 0 0 0 0 0 0 0 0 0 0 0 0 0 0 0 0 ",
"0 0 0 0 0 0 0 0 0 0 0 0 0 0 0 0 0 0 0 0 0 0 0 0 0 0 0 0 0 0 0 0 0 0 0 0 0 0 0 0 0 0 0 0 0 0 0 0 0 0 0 0 0 0 0 0 0 0 0 0 0 0 0 0 ",
"0 0 0 0 0 0 0 0 0 0 0 0 0 0 0 0 0 0 0 0 0 0 0 0 0 0 0 0 0 0 0 0 0 0 0 0 0 0 0 0 0 0 0 0 0 0 0 0 0 0 0 0 0 0 0 0 0 0 0 0 0 0 0 0 ",
"0 0 0 0 0 0 0 0 0 0 0 0 0 0 0 0 0 0 0 0 0 0 0 0 0 0 0 0 0 0 0 0 0 0 0 0 0 0 0 0 0 0 0 0 0 0 0 0 0 0 0 0 0 0 0 0 0 0 0 0 0 0 0 0 ",
"0 0 0 0 0 0 0 0 0 0 0 0 0 0 0 0 0 0 0 0 0 0 0 0 0 0 0 0 0 0 0 0 0 0 0 0 0 0 0 0 0 0 0 0 0 0 0 0 0 0 0 0 0 0 0 0 0 0 0 0 0 0 0 0 ",
"0 0 0 0 0 0 0 0 0 0 0 0 0 0 0 0 0 0 0 0 0 0 0 0 0 0 0 0 0 0 0 0 0 0 0 0 0 0 0 0 0 0 0 0 0 0 0 0 0 0 0 0 0 0 0 0 0 0 0 0 0 0 0 0 ",
"0 0 0 0 0 0 0 0 0 0 0 0 0 0 0 0 0 0 0 0 0 0 0 0 0 0 0 0 0 0 0 0 0 0 0 0 0 0 0 0 0 0 0 0 0 0 0 0 0 0 0 0 0 0 0 0 0 0 0 0 0 0 0 0 "
};
