/* XPM */
static char *a042d8b4717543d0be98060d930f4a1eRqC3ROCmd8QllYK2[] = {
/* columns rows colors chars-per-pixel */
"64 64 197 2 ",
"   c #000000",
".  c #060803",
"X  c #0A0C05",
"o  c #0E1107",
"O  c #0F1308",
"+  c #121609",
"@  c #151A0B",
"#  c #181D0D",
"$  c #1B1D17",
"%  c #1C220E",
"&  c #1F2611",
"*  c #1E211B",
"=  c #202710",
"-  c #252D13",
";  c #2C3616",
":  c #323D19",
">  c #232322",
",  c #26471E",
"<  c #35411B",
"1  c #39451D",
"2  c #3F4D20",
"3  c #355030",
"4  c #3E7532",
"5  c #404F20",
"6  c #445322",
"7  c #4D5E27",
"8  c #49562E",
"9  c #4E5A34",
"0  c #4F6028",
"q  c #53652A",
"w  c #576A2C",
"e  c #596C2C",
"r  c #5D722F",
"t  c #5D6F33",
"y  c #45793A",
"u  c #627631",
"i  c #667C33",
"p  c #697C3E",
"a  c #6C7E43",
"s  c #6B8336",
"d  c #6D8838",
"f  c #728B39",
"g  c #69903D",
"h  c #7A943E",
"j  c #7B953E",
"k  c #218D45",
"l  c #269045",
"z  c #2C9345",
"x  c #2D934C",
"c  c #329646",
"v  c #369846",
"b  c #3B9B47",
"n  c #3D9A48",
"m  c #3D9C50",
"M  c #419E47",
"N  c #439D48",
"B  c #489F48",
"V  c #669F4B",
"C  c #7E9940",
"Z  c #45A047",
"A  c #49A247",
"S  c #45A148",
"D  c #4CA349",
"F  c #52A549",
"G  c #59A74B",
"H  c #55A949",
"J  c #5CAD4A",
"K  c #52A758",
"L  c #62AE4B",
"P  c #6AAE4D",
"I  c #79A947",
"U  c #65B04B",
"Y  c #6CB34C",
"T  c #73B54D",
"R  c #7BB74E",
"E  c #77B84E",
"W  c #7CB94E",
"Q  c #62AF53",
"!  c #65B153",
"~  c #6AB455",
"^  c #6CB55A",
"/  c #7AB952",
"(  c #73B75A",
")  c #78B758",
"_  c #71B761",
"`  c #74B964",
"'  c #7BBC65",
"]  c #77BA68",
"[  c #7ABC6B",
"{  c #7FBF71",
"}  c #819D40",
"|  c #85A143",
" . c #89A745",
".. c #8BAA46",
"X. c #8DAD48",
"o. c #91AD4F",
"O. c #82B44B",
"+. c #8EB64C",
"@. c #83BC4F",
"#. c #89BE4F",
"$. c #94B44A",
"%. c #94BA4D",
"&. c #9BBC4E",
"*. c #8BA451",
"=. c #82B752",
"-. c #84BC52",
";. c #8ABE50",
":. c #84BE5B",
">. c #9BBC53",
",. c #98AD68",
"<. c #82BF69",
"1. c #82BF73",
"2. c #8BC04F",
"3. c #94C04F",
"4. c #8EC050",
"5. c #8CC15A",
"6. c #93C251",
"7. c #9BC652",
"8. c #9FC853",
"9. c #94C45D",
"0. c #A2C652",
"q. c #A5CA54",
"w. c #A8CB56",
"e. c #A6C65C",
"r. c #A5CB5A",
"t. c #A9CC5A",
"y. c #87C16A",
"u. c #96C664",
"i. c #9BC865",
"p. c #96C76B",
"a. c #85C177",
"s. c #8BC477",
"d. c #89C37B",
"f. c #98C978",
"g. c #ABCE62",
"h. c #A7CD6B",
"j. c #AFD063",
"k. c #B2D16C",
"l. c #A4CA74",
"z. c #B3CE73",
"x. c #AED175",
"c. c #ABD07B",
"v. c #B5D373",
"b. c #B8D474",
"n. c #B5D47B",
"m. c #BBD77B",
"M. c #96B290",
"N. c #8DC681",
"B. c #90C784",
"V. c #95C986",
"C. c #98CB8C",
"Z. c #9CCD92",
"A. c #A5CA86",
"S. c #A8D18A",
"D. c #B7D682",
"F. c #BAD781",
"G. c #AEC699",
"H. c #A5D29B",
"J. c #A8D298",
"K. c #BCDA96",
"L. c #AED6A2",
"P. c #A9D3AE",
"I. c #B4D8A4",
"U. c #B1D7A9",
"Y. c #B4D9AB",
"T. c #BDDEB6",
"R. c #C1DA87",
"E. c #C3DB8C",
"W. c #C5DC91",
"Q. c #C6DE9D",
"!. c #C8DF98",
"~. c #CAE09B",
"^. c #CFDFAC",
"/. c #C3DFB1",
"(. c #CFE2A2",
"). c #D3E4AB",
"_. c #C9E2B9",
"`. c #CAE4BF",
"'. c #D4E5B5",
"]. c #D1E6BE",
"[. c #DBEABB",
"{. c #D8DAD2",
"}. c #C7E2C1",
"|. c #CBE4C4",
" X c #CFE6C9",
".X c #D3E8C7",
"XX c #D5E8C4",
"oX c #DFEBC3",
"OX c #D6EAD1",
"+X c #DCEDD6",
"@X c #E3EFD5",
"#X c #E7F2D9",
"$X c #E4F1E1",
"%X c #EDF5E3",
"&X c #F4F8EA",
"*X c #F6FAF6",
"=X c #FAFCF9",
/* pixels */
"                                                                                                                                ",
"                                                                                                                                ",
"                                                                                                                                ",
"                                                                                                                                ",
"                                                                                                                                ",
"                                                                . . . . .                                                       ",
"                                                  o X . + 2 2 8 *.| | | a * 2 % o                                               ",
"                                                7 } h r X.0.0.W.W.q.q.t.).{.0.$.6                                               ",
"                                          . : | t.g.0.4.Y ( ( E 8.0.#Xm.g.j.q.q.} o                                             ",
"                                          - 0.q.Q.f.Y L y..XD.@.T W n.%Xv.q.t.W.0.6 > 3 , , X .                                 ",
"                                      . < 7.q.k.! J J @.w.~.x.4.@.J ` H.-.4.m.&Xg.0.'. XP J O.s 6 O                             ",
"                                    % ..z.n.W V.U.J J @.Y .Xy.T T U J J J J Y <.6.0.t.g.7.E Y S.E.t                             ",
"                                  ; X.u.+XH.J J ` J J J E 7.8.4.q.4.W T J Z.! J J E @.Y W 0.7.F.).a o < .                       ",
"                                @ ..6.7.Y J ! +X{ J J J U T T T E @.-.0.2.oXH.J J J ! d.! J 7.q.q.q.g.,.#                       ",
"                              X 1 =.1.Y J J J [ H.J J D #.q.q.q.8.G N N P R / U H J ! U.` J :.4.0.q.oX@Xo.@                     ",
"                            . u +.Y Y J J W Y J J J b Y 0.q.q.q.q.0.7.Y A J 6.8.v D J J J ! T.^ Y 8.f.Q.t.7                     ",
"                            r 6.@.;.6.@.7.4.U J J U 6.6.F c -.6.T z z R W 6.8.q.;.n l c D J ~ J J T ;.Y 7.&..                   ",
"                          . g s.f.r.q.6.T J J J W 4.L c k k N S v l k k l n F R 8.6.F k z J V.d.J J U L 6.0.5 .                 ",
"                          # ) #X(.'.s.J J J J @.0.R k k k z 7.0.0.@.F D D D z k z L 4.A c K =XL.a.J J J Y F.f X                 ",
"                        @ I w.k.9.OX}.E 6.6.6.0.P k c F @.6.0.8.q.q.q.q.q.q.6.D k z z E G D P._ OX[ J J J Y.l.;                 ",
"                        0 q.q.0.U B.}.q.0.T 0.;.k D 6.q.q.0.F P q.q.q.q.q.q.@.T z M v v 4.H c H Z.! J J ] J V -                 ",
"                      - $.0.Y h.7.8.q.6.A c F z N ;.k N D k M W J F Y 7.N l F k k D J z N 7.z A J J J a.*X` 4 .                 ",
"                      8 F.6.^ .Xq.6.W c k k N P z c k k k k z l N T 7.6.J H F z k D J M k J v D J J J ]  X^ y .                 ",
"                      9 [.4.~ D.8.Y A k k z E c k k k k k k k z 6.4.#.q.8.7.6.F k c J A k z v H J J J J ! L M.$                 ",
"                      u w.6.Y 7.@.J b k v 6.F k k z c l k l l l z l z L 6.q.q.6.c k z Z c k z Z J J J J J J l.9 @               ",
"                      q.;.0.@.#.J J v c Y L k k b H H c S A v z k k z k b @.q.q.T z z z v k A N H J J J J J Y 7.f X             ",
"                      0.W q.4.E J J H c R k k M J F J H A k k N z R 8.N k z 6.q.6.c c L v k N T H J J J J J J Y %.:             ",
"                    5 7.W q.7.U J H v b ;.k k S D l S c v c P 0.4.@.b T c k G 0.7.v z E b k k G H Z J J J J J J R :             ",
"                    7 6.4.q.#.J J v k A R k M J v k c Y 6.;.0.q.7.G D k k k z 6.q.Y l N D k k c H b M J J J ] J L 7             ",
"                    7 @.L 6.@.J H z k D F l H D k k L q.q.q.q.q.E R q.N k k k J q.;.v k D J v k k v z J J L  X] Y d .           ",
"                    7 @.J Y W J D l k l l F J Z k k 8.q.q.6.-.q.A N 6.7.B k N 4.8.G b k D c v l z Z z H J J N.! U %.@           ",
"                    7 @.<.8.@.J A k k k k H Z J k k T q.q.c z 6.6.c N P c k J q.q.L k v A l M z Y b l D J J J J U 7.%           ",
"                    7 L U.[.U J k k b k k k M H k k z U 6.N F 0.6.N z N z k P q.0.G k H M k Z z W N k D J J J J Y $.@           ",
"                    7 J p.K.L J c c A k k z H M k k k v Y W M R q.0.;.0.W z 6.q.6.v z J D l z k N N k D J J J E #.q             ",
"                    7 Y @.4.J J D Z Z k k J J M k k k z k k k N q.q.q.0.G k ;.6.A k H D J H k k c F k D J J J 6.&.:             ",
"                    7 4.W 6.J J J J Z k k D J A k k k F z k Z l ;.6.6.v n D ;.n l v M c H z k k c P z J J J J 7.%.-             ",
"                    7 0.W 8.L J J J Z k k k H J S k k v A k b v z c c z G P z k c z k b b k b z c P D J J E E 8....             ",
"                    < k.J.T 4.E J J J k k k A M J J z l D z k k k k k k k k k z c v v H z k G N 4.H J J U 7.) t.s .             ",
"                      >.!.`.K.p.J J J Z l k k v J J D k v H D Z k k k l z c v c c b F z k k n @.A D J ` u.q.I.[.-               ",
"                      q q._ L.~.T J J J v k k k J J J c k z M H D v v F v l k z v z l k k k W P z J J  X'.w.'.).-               ",
"                      %  .6.I.&X6.L J J M k k k c J J D k k k M A A H b k k n T L k k z N ;.Y n H ! E b.v.q.t.w.-               ",
"                      + h q.R.!.q.W L a.J m k v D b H H Z v k k k k c z z k F c k k c @.4.T R ;.( |.k.4./ 8.q.0.-               ",
"                      # ..t.~.q.q.W C.`.B.+Xx b 6.v k k v Z k k D D 7.8.R k k c D P @.F Y 8.@.L y.=X@X_ H.7.q.C                 ",
"                      @ | q.t.6.7.Y ! [ |.*XK S 8.D k k k k k v R R b c z c N R T v v R 4.Y U :.c.Y.{ T.L.T ..e                 ",
"                      . i q.8.U W T J J _ Y.Q J 4.4.D k k k v v v z k k v F G F b A E 6.4.W 7.h.{ J J ` :.%.- .                 ",
"                        6 q.q.@.Y 7.J J J J J J Y 0.q.L b z k k k k k k k k J 0.q.q.q.q.q.q.q.6.L L J U 7.0.0 X                 ",
"                        X h q.x.C.9.T Y L J J J J W 8.q.8.E N b l l z D G L @.6.4.q.g.R.w.8.6.0.6.~ J 6.q.q.e .                 ",
"                          + &.E.=XJ.h.n.#.J J [ N.J Y q.q.q.8.7.Y H H L U U @.Y U 8.g.%Xf.U @.q.5.d./ q.q.s %                   ",
"                            6 $.e.t.t.k.q.6.Y ! U.J J U U F.%X' U Y Y Y T T Y Y L @.@.^ ! U h.b.-.7.h f ;                       ",
"                            . = w q.7.XXp.0.7.W J J J J E d.J.T @.8.W W 6.;.-.Y L J L H.S.7.[.(.q.| o                           ",
"                              . h q.6.d.d.L L 4.6.E J ! i.0.q.q.0.6.J J J C././ 7.Y @.%X(.q.t.w.$.-                             ",
"                                X 7 h +.7.6.U U ].y.U T.`.4.4.9._./ T 7.6.v.m.q.Y ! ` S.r.q.7. .r                               ",
"                                    X 1 | q.7.@.A.K.7.:.) J J ( [ 9.8.@.W 5.oX5.J Z.$X(.w.0.e #                                 ",
"                                            1 &.e.^.r.q.q.T Q U Y Y L ! Y E q.W 0.q.).q.X.s                                     ",
"                                              % - - < s ..>._.n.q.8.3.G.A.$.} i i i i q @                                       ",
"                                                      . + & a p u u q $ * # o . . . .                                           ",
"                                                                                                                                ",
"                                                                                                                                ",
"                                                                                                                                ",
"                                                                                                                                ",
"                                                                                                                                ",
"                                                                                                                                ",
"                                                                                                                                ",
"                                                                                                                                "
};
