/* XPM */
static char * wall2_xpm[] = {
"64 64 47 1",
" 	c #202020",
".	c #383838",
"+	c #2C2C2C",
"@	c #C80000",
"#	c #A40000",
"$	c #880000",
"%	c #BC0000",
"&	c #B00000",
"*	c #980000",
"=	c #9C9C00",
"-	c #700000",
";	c #4C0000",
">	c #640000",
",	c #7C0000",
"'	c #580000",
")	c #848400",
"!	c #8C8C8C",
"~	c #B4AC00",
"{	c #706C00",
"]	c #585400",
"^	c #484848",
"/	c #545454",
"(	c #885830",
"_	c #382C14",
":	c #707070",
"<	c #400000",
"[	c #5C4020",
"}	c #989898",
"|	c #7C7C7C",
"1	c #A8A8A8",
"2	c #646464",
"3	c #480048",
"4	c #400040",
"5	c #000000",
"6	c #744C28",
"7	c #905C34",
"8	c #1C1C1C",
"9	c #282828",
"0	c #500050",
"a	c #580058",
"b	c #6C0070",
"c	c #303030",
"d	c #80502C",
"e	c #543C1C",
"f	c #6C4824",
"g	c #404040",
"h	c #28200C",
" .+++++.++++++.+ +++++++......+++++++++.......++++   ++..+++++ .",
"@@@@#######$++.%%%%&&&&####********$+ .@@@@&&&&&#######******$+.",
"=&**%-$%-&$; +.%#-#-#-#>#,#,#>#>#&$' + @$&*&**&'&>&*&-*$>&,&$= .",
"))!!!!!!!!!!!!!!!!!!!!!!!!!!!!!!!!!!!!!!!!!!!!!!!!!!!!!!!!!!~~{.",
"{]^^/////////////////////////////////////////////////////^^^](].",
"_$////::::::::::::::::::::::::::::::::::::::::::::::::::/^//<[ .",
",>:/#-<<+;;;;;;;;;;;;;;;;;;;;;;;;;;;;;;;;;;;;;;;>$*@&/<<</}^<; .",
",$|/-}:^</|}1}}!!!!!!!!!!!!!!!!!!!!!!!!!!!!!!!!}}}}}/</^:%/^<; .",
">;!:<:}:/2:||2/|1}!!!!!!!!!!!!!!!!!!!!!!!!!!!!23.}!|||^|1,^/;; .",
"+ 1|<:|}://::.4^|11}}!!!!!!!!!!!!!!!!!!!!!!}}2.4 :||::|1/</:55 .",
"  1!+^:!}://2 +44/|1}}}}}!! ^.    [67:!!!}}2.4+  ::::|1}.+2|5  .",
"&&!1</:|!}:^.+8 9+4/|!!!!!!     / [[67!!!2.4+   +:::|}}|/<:|<>&.",
"--!1-:2:|!/0^.+88 9++4/2!!!^      [2!!2.44++   +^^ ^|}|2/<|!<<*.",
"$-!1&|:2:/aa+^.+ 8  a++4^2!!      2!2.44+a   8+^.34a^|:/2;|!<<,.",
"$$!!*!:2240a0++.++ 84 ++44!!      !!+44+ 488 +.+ 40aa:2/2;|!<<>.",
"--!!-}|:2840a04++.+ 88  +.!!      !!.99  88 ++8 93a032/22;|!<<>.",
"$;!!;1!|:+844334+  888882!!^      ^!!2  888888 94003.2/2:;!!<<-.",
"*;!!;1}!:.+8444349388882 ^!        !^828888+8894333.//22|;!!<<'.",
"';!!;11. ^.+ 9443+a  88 8 !!      !!888888+3 9443./.++.:|;!!<<;.",
"  !!;!1+ 8+.++94439a   8 8/.      ./8888883++44.2/.+888:|;!!55 .",
".+!!;!14+  8 +++..+ 9  88          888888 9+..2/. 88888||;!!5  .",
"%%!!;!!449 8888  +b+ 9 9           88888 99b++99 88888+||;!!<> .",
"&-!!;!:+4+  8888  499 9 9           88  999a++9 888888+:|;!!<< .",
"&*!!;!:^+49 88888849 9 9   ...^^...    999+0+9 8888888^:|;!!<< .",
"&;!!;!::^++9 88 8 949      .4a44a4.   999+0+9 888888+^::!;!!<< .",
"&*!!;! ++.^^..++998 949    /a4444a/  9 90++9  9999++.+43!;!!<< .",
"&'!!;!  ++++ 8 8 8 8 944   +444444+ 9 309+9 98888888 +43!;!!<< .",
"&$!!'!                     ^ 4444 ^  99999 9            !;!!<< .",
"$,}}'}                     +4a 4a4+ 9 9 9 9             !;!!<< .",
"+ }}>}           ++    +   .+4 44+.    9 9             +!;!!55 .",
"..11>1.        +.     +    +.c++c.+   9 9    .        +.!;!!58 .",
"##11>1:.+   +..+     .       +cc+       .     +^^+   +.:!;!!<>#.",
"*$}}>}!!:::/^+      .                    .      +^/:::!!!;!!<<$.",
">-}}'}!:/^+        ^                      ^        +^/:!!;!!<<'.",
">$!!'!!+          ^    ^ ^          ^ ^    ^          +!!;!!<<'.",
"->!!;!!+         ^    .:^            ^:.    ^         +!!;!!<<-.",
"->!!;!!^        ^     :               .:     ^        ^!!;!!<<'.",
"'-!!;!!:+      ^     :                 .:     ^      +:!!;!!<<'.",
";;||<|||^+   +^                         ..     ^    +^!!!;!!<<;.",
"  ||<||||^+ +^      :                    :.     ^  +^!!!!;!!55 .",
"+.||<|||!|::::^   +:!a      ^    ^      a!:.   .::::!!!!!;!!5  .",
"%%||<||!|!|!!::^++:!!!^                ^!!!:. .::!!!!!!!!;!!<> .",
"%$||<|!|!|!!/((/!!!!/[                  d/!!!!/dd/!!!!!!!;!!<< .",
"&$!!;!!!!!!!([6((77(((6[  ^!      !^  [d((777((6e6!!!!!!!;!!<< .",
"&-!!;!!!!!!!!/.[77((d[/!!!!^      ^!!!!/[6d77d[./!!!!!!!!;!!<< .",
"&$!!;!!!!!!!2(((7(6[[f(!!!^        ^!!!(6[[677(d62!!!!!!!;!!<< .",
"&$!!;!!!!!!!([[2(([22[f!/            /!6[22[(d6[[6!!!!!!!;!!<< .",
"&$!!;!!!!!!!6/2!6(!!!!/+              +/!!!!(d!2/[!!!!!!!;!!<< .",
"$;!!;!!!!!!!!!!![6!!/+                  +/!!6[!!!!!!!!!!!;!!<< .",
"+ !!;:!!!!!!!!!!2[!^        /    /         ![2!!!!!!!!!!:;!!55 .",
" .!!;/!!!!!!!!!!!!!2+     /!      !/     +/!!!!!!!!!!!!!/;!!5  .",
"##|!/;/:!!!!!!!!!!!!:/+ ./!/      /!/. +/!!!!!!!!!!!!!:/;/!|<>#.",
"$;2!!/;;;/:!!!!!!!!!!!!!!!!^      ^!!!!!!!!!!!!!!!!:2;;;/:!2<<'.",
">>^2!!!:/;;;;/:!!!!!!!!!!!!!^    ^!!!!!!!!!!!!!:/;;;;2:!!|2^<<;.",
">;<<^2|!!!!:/;;;/:!!!!!!!!!!!^  ^!!!!!!!!!!!:/;;;/:!!!!|2^<<<<-.",
",;<<<<^2|!!!!!:/;;;/:!!!!!!!!!^^!!!!!!!!!:/;;;/:!!!!|2^<<<<<<'$.",
"$>$<<;<<<<^2|!!!!:/;;;/:!!!!!!!!!!!!!!:/;;;/:!!!!|2^<<<<<<';$'$.",
"$>>;,<<<;<<<<^2|!!!!:/;;;;/:!!!!!!:/;;;;/:!!!!|2^<<<<<;<'$';;$;.",
",;$;;-;><<<<<<<<<^2|!!!!:/;;;/::/;;;/:!!!!|2^;555<<<<<;$'$'$;$'.",
";;;;;;;;;<<<<<<<<588^2|!!!!:/;;;;/:!!!|2^;;;;;588<;;;;;;;;;;;;;.",
"           5555555888888^2|!!!!!!!!|2^88888888                 .",
". .   +++++.          888888^2||2^88888888      .++ .++++   +++.",
"^^^^^^^^^^^^^gggg.........................gggg^^^^^^^^^^^^^^^^^.",
"hhhhhhhhhhhhhhhhhhhhhhhhhhhhhhhhhhhhhhhhhhhhhhhhhhhhhhhhhhhhhhh+"};
